<?xml version="1.0" standalone="no"?>
<!DOCTYPE svg PUBLIC "-//W3C//DTD SVG 1.1//EN" "http://www.w3.org/Graphics/SVG/1.1/DTD/svg11.dtd" >
<svg xmlns="http://www.w3.org/2000/svg" xmlns:xlink="http://www.w3.org/1999/xlink" version="1.1">
<metadata>
Created by FontForge 20190801 at Sat Feb  7 20:18:33 2009
 By Jimmy Wärting
Designed for FontShop International in 1995 by Albert-Jan Pool. Based on OCR-B typeface (1968) by Adrian Frutiger. OCR-B was designed for use of optical character recognition systems and very similar to Univers by its shape. OCR-F is a sans serif typeface and has three weights. For use in advertising and display typography. Cyrillic version developed at ParaType in 1999 by Tagir Safayev and Vladimir Pavlikov. 
</metadata>
<defs>
<font id="OCRF-RegularOSFC" horiz-adv-x="640" >
  <font-face 
    font-family="OCRF-RegularOSFC"
    font-weight="400"
    font-stretch="normal"
    units-per-em="1000"
    panose-1="2 0 5 6 3 0 0 2 0 4"
    ascent="800"
    descent="-200"
    x-height="503"
    cap-height="668"
    bbox="0 -171 847 896"
    underline-thickness="50"
    underline-position="-100"
    stemh="90"
    stemv="100"
    unicode-range="U+0020-2265"
  />
<missing-glyph horiz-adv-x="233" 
 />
    <glyph glyph-name=".notdef" horiz-adv-x="233" 
 />
    <glyph glyph-name="space" unicode=" " horiz-adv-x="233" 
 />
    <glyph glyph-name="exclam" unicode="!" horiz-adv-x="480" 
d="M360 720l-22 -454h-99l-23 454h144zM358 0h-140v123h140v-123z" />
    <glyph glyph-name="quotedbl" unicode="&#x22;" horiz-adv-x="560" 
d="M451 684l-19 -267h-76l-19 267h114zM223 684l-19 -267h-76l-19 267h114z" />
    <glyph glyph-name="numbersign" unicode="#" 
d="M600 430h-114l-20 -128h101v-88h-116l-34 -214h-97l34 214h-115l-34 -214h-97l34 214h-102v88h116l20 128h-103v88h117l32 202h97l-31 -202h114l32 202h97l-31 -202h100v-88zM388 430h-115l-19 -128h114z" />
    <glyph glyph-name="dollar" unicode="$" 
d="M365 395l39 -18c67 -31 116 -61 143 -121c6 -13 15 -37 15 -78c0 -73 -36 -113 -52 -129c-39 -38 -90 -58 -145 -59v-95h-94v95c-28 0 -99 5 -147 50c-42 40 -56 98 -57 140h100c3 -44 27 -70 30 -73c15 -15 40 -29 74 -29v225l-30 13c-49 21 -102 44 -131 97
c-15 27 -19 57 -19 81c0 56 25 101 50 127c26 27 73 52 130 56v87h94v-86c40 -2 100 -14 140 -56c29 -30 47 -73 47 -120h-99c-4 50 -39 85 -88 88v-195zM271 406v183c-50 -8 -78 -45 -78 -86c0 -28 7 -42 16 -53c8 -10 23 -26 62 -44zM365 292v-214c61 3 93 46 93 98
c0 13 -1 25 -12 45c-21 39 -58 61 -81 71z" />
    <glyph glyph-name="percent" unicode="%" horiz-adv-x="548" 
d="M172 730c40 0 69 -16 86 -35c21 -23 34 -60 34 -96s-13 -73 -34 -96c-17 -19 -46 -35 -86 -35s-69 16 -86 35c-21 23 -34 60 -34 96s13 73 34 96c17 19 46 35 86 35zM172 678c-20 0 -34 -8 -45 -24c-10 -15 -14 -35 -14 -55s4 -40 14 -55c11 -16 25 -24 45 -24
s34 8 45 24c10 15 14 35 14 55s-4 40 -14 55c-11 16 -25 24 -45 24zM526 694l-419 -704h-52v37l421 703h50v-36zM398 252c40 0 69 -16 86 -35c21 -23 34 -60 34 -96s-13 -73 -34 -96c-17 -19 -46 -35 -86 -35s-69 16 -86 35c-21 23 -34 60 -34 96s13 73 34 96
c17 19 46 35 86 35zM398 200c-20 0 -34 -8 -45 -24c-10 -15 -14 -35 -14 -55s4 -40 14 -55c11 -16 25 -24 45 -24s34 8 45 24c10 15 14 35 14 55s-4 40 -14 55c-11 16 -25 24 -45 24z" />
    <glyph glyph-name="ampersand" unicode="&#x26;" 
d="M584 0h-122l-25 34c-54 -35 -105 -44 -148 -44c-64 0 -117 14 -155 51c-21 21 -54 65 -54 134c0 40 8 79 32 116c2 3 27 41 77 79l-40 57c-19 27 -44 71 -44 129c0 65 29 106 57 130c24 21 66 44 129 44c62 0 112 -21 143 -51c18 -17 44 -52 44 -108
c0 -71 -46 -116 -89 -152l-72 -60l138 -188c17 25 31 59 31 125v25h91v-27c0 -66 -13 -136 -67 -198zM268 426l47 37c16 13 35 26 51 50c11 16 16 31 16 52c0 22 -6 38 -23 54c-16 15 -37 25 -66 25c-19 0 -45 -4 -65 -27c-15 -17 -22 -41 -22 -64c0 -28 14 -59 29 -80z
M384 105l-143 194c-56 -42 -58 -98 -58 -114c0 -41 17 -66 31 -79c18 -16 46 -28 81 -28c20 0 51 3 89 27z" />
    <glyph glyph-name="quotesingle" unicode="'" horiz-adv-x="400" 
d="M257 684l-19 -267h-76l-19 267h114z" />
    <glyph glyph-name="parenleft" unicode="(" horiz-adv-x="480" 
d="M382 -51h-75c-64 44 -125 109 -160 174c-26 50 -49 119 -49 212c0 74 13 144 48 210c10 18 57 105 161 176h75v-68c-52 -35 -107 -89 -138 -142s-43 -112 -43 -176c0 -47 7 -111 42 -174c29 -51 82 -106 139 -144v-68z" />
    <glyph glyph-name="parenright" unicode=")" horiz-adv-x="480" 
d="M98 -51v68c57 38 110 93 139 144c35 63 42 127 42 174c0 64 -12 123 -43 176s-86 107 -138 142v68h75c104 -71 151 -158 161 -176c35 -66 48 -136 48 -210c0 -93 -23 -162 -49 -212c-35 -65 -96 -130 -160 -174h-75z" />
    <glyph glyph-name="asterisk" unicode="*" 
d="M540 526l-162 -41l106 -129l-75 -54l-90 140l-89 -140l-75 54l106 129l-161 41l28 88l155 -60l-10 166h93l-11 -166l156 60z" />
    <glyph glyph-name="plus" unicode="+" 
d="M562 225h-197v-197h-90v197h-197v90h197v197h90v-197h197v-90z" />
    <glyph glyph-name="comma" unicode="," horiz-adv-x="400" 
d="M296 61l-172 -178h-87l134 234h125v-56z" />
    <glyph glyph-name="hyphen" unicode="-" horiz-adv-x="400" 
d="M334 219h-268v103h268v-103z" />
    <glyph glyph-name="period" unicode="." horiz-adv-x="400" 
d="M272 0h-144v127h144v-127z" />
    <glyph glyph-name="slash" unicode="/" 
d="M126 -52l283 772h105l-283 -772h-105z" />
    <glyph glyph-name="zero" unicode="0" horiz-adv-x="560" 
d="M519 299c0 -185 -96 -309 -239 -309s-239 124 -239 309s96 309 239 309s239 -124 239 -309zM415 299c0 134 -53 218 -135 218s-135 -84 -135 -218s53 -218 135 -218s135 84 135 218z" />
    <glyph glyph-name="one" unicode="1" horiz-adv-x="400" 
d="M313 0h-100v498l-177 -129v115l169 120h108v-604z" />
    <glyph glyph-name="two" unicode="2" horiz-adv-x="560" 
d="M496 0h-442v57c0 69 13 117 45 155c40 48 84 67 152 101c51 26 97 46 116 72c12 16 17 36 17 56c0 48 -41 89 -114 89c-62 0 -112 -15 -198 -68v96c68 40 120 60 198 60c153 0 218 -78 218 -169c0 -37 -8 -69 -27 -97c-28 -41 -75 -63 -140 -96
c-94 -48 -159 -69 -163 -168h338v-88z" />
    <glyph glyph-name="three" unicode="3" horiz-adv-x="560" 
d="M489 101c0 -150 -106 -234 -264 -234c-81 0 -149 20 -195 48v104c69 -43 129 -62 191 -62c98 0 164 50 164 140c0 78 -44 134 -165 134h-69v81l183 198h-301v88h426v-86l-186 -197c135 -8 216 -83 216 -214z" />
    <glyph glyph-name="four" unicode="4" 
d="M578 24h-98v-157h-100v157h-315v101l241 488h108l-246 -501h212v162h100v-162h98v-88z" />
    <glyph glyph-name="five" unicode="5" horiz-adv-x="560" 
d="M482 131c0 -202 -170 -260 -347 -263l-55 -1v95l48 1c119 2 250 31 250 167c0 87 -60 135 -163 135c-47 0 -94 -6 -138 -14l22 347h362v-88h-271l-11 -158c19 3 39 4 61 4c136 0 242 -69 242 -225z" />
    <glyph glyph-name="six" unicode="6" 
d="M572 234c0 -144 -97 -244 -250 -244s-250 100 -250 244c0 93 29 167 77 245c62 102 147 189 213 251h127c-89 -81 -200 -196 -262 -290c28 19 65 33 110 33c136 0 235 -93 235 -239zM468 232c0 95 -61 153 -146 153s-146 -58 -146 -153s61 -152 146 -152s146 57 146 152z
" />
    <glyph glyph-name="seven" unicode="7" horiz-adv-x="560" 
d="M504 598c0 -44 2 -80 -11 -118c-14 -41 -50 -86 -123 -168c-44 -49 -86 -102 -108 -164c-23 -65 -27 -128 -27 -191v-90h-100v100c0 73 7 138 33 205c22 56 60 110 117 175c68 77 98 115 106 135c3 7 4 16 4 28h-360v88h469z" />
    <glyph glyph-name="eight" unicode="8" 
d="M557 191c0 -142 -118 -201 -237 -201s-237 59 -237 201c0 43 9 73 28 103c28 44 75 76 118 102c-32 19 -67 43 -90 73c-20 26 -31 52 -31 88c0 97 87 173 212 173s212 -76 212 -173c0 -36 -11 -62 -31 -88c-23 -30 -58 -54 -90 -73c43 -26 90 -58 118 -102
c19 -30 28 -60 28 -103zM429 554c0 49 -41 90 -109 90c-66 0 -109 -39 -109 -90c0 -48 47 -79 109 -114c62 35 109 66 109 114zM454 191c0 84 -72 121 -134 157c-62 -36 -134 -73 -134 -157c0 -64 55 -111 134 -111s134 47 134 111z" />
    <glyph glyph-name="nine" unicode="9" 
d="M568 364c0 -93 -29 -167 -77 -245c-62 -102 -147 -190 -213 -252h-127c89 81 200 197 262 291c-28 -19 -65 -33 -110 -33c-136 0 -235 93 -235 239c0 144 97 244 250 244s250 -100 250 -244zM464 366c0 95 -61 152 -146 152s-146 -57 -146 -152s61 -153 146 -153
s146 58 146 153z" />
    <glyph glyph-name="colon" unicode=":" horiz-adv-x="480" 
d="M312 386h-144v117h144v-117zM312 0h-144v117h144v-117z" />
    <glyph glyph-name="semicolon" unicode=";" horiz-adv-x="480" 
d="M332 386h-144v117h144v-117zM360 118l-176 -228h-91l122 228h145z" />
    <glyph glyph-name="less" unicode="&#x3c;" 
d="M551 21l-462 211v75l462 211v-98l-339 -151l339 -151v-97z" />
    <glyph glyph-name="equal" unicode="=" 
d="M555 324h-470v90h470v-90zM555 125h-470v90h470v-90z" />
    <glyph glyph-name="greater" unicode="&#x3e;" 
d="M551 232l-462 -211v97l339 151l-339 151v98l462 -211v-75z" />
    <glyph glyph-name="question" unicode="?" horiz-adv-x="560" 
d="M383 242h-102v29c0 44 2 61 46 102l18 17c35 33 53 63 53 108c0 41 -15 61 -20 66c-10 11 -29 25 -64 25c-21 0 -45 -5 -62 -25c-11 -13 -22 -35 -22 -72v-26h-100v36c0 60 23 104 49 129c24 24 67 47 136 47c64 0 106 -20 132 -43c28 -25 55 -70 55 -139
c0 -36 -9 -69 -29 -101c-18 -29 -44 -52 -65 -73c-22 -21 -27 -28 -26 -56zM403 125v-125h-143v125h143z" />
    <glyph glyph-name="at" unicode="@" horiz-adv-x="720" 
d="M620 432v-313c0 -40 -14 -71 -32 -90c-19 -20 -54 -39 -107 -39c-56 0 -95 24 -113 66c-22 -45 -64 -66 -114 -66c-64 0 -102 29 -124 59c-23 31 -38 77 -38 141c0 63 13 116 41 151c19 23 57 55 125 55c22 0 64 -6 88 -51v41h85v-257c0 -34 17 -56 45 -56
c27 0 48 18 48 56v295c0 72 -30 109 -43 123c-39 41 -95 46 -133 46c-57 0 -85 -14 -95 -19c-42 -22 -50 -54 -50 -84h-97c-2 61 25 121 87 155c50 27 110 33 156 33c41 0 139 -3 204 -65c62 -60 67 -143 67 -181zM335 193c0 53 -11 77 -13 82c-12 26 -32 38 -59 38
c-26 0 -45 -11 -57 -36c-5 -10 -14 -34 -14 -84c0 -49 8 -72 12 -80c10 -24 29 -40 59 -40c27 0 48 12 60 40c9 21 12 54 12 80z" />
    <glyph glyph-name="A" unicode="A" horiz-adv-x="560" 
d="M526 0h-104l-49 184h-192l-49 -184h-99l180 668h133zM352 265l-76 284l-76 -284h152z" />
    <glyph glyph-name="B" unicode="B" 
d="M94 668h240c43 0 105 -6 151 -43c30 -24 60 -65 60 -136c0 -67 -36 -113 -87 -136c67 -25 107 -82 107 -156c0 -58 -22 -108 -57 -141c-30 -28 -81 -56 -164 -56h-250v668zM194 394h141c22 0 54 3 79 26c22 20 27 44 27 66c0 23 -6 50 -30 69c-20 16 -49 23 -76 23h-141
v-184zM194 90h146c35 0 69 11 89 30c19 18 32 46 32 80c0 40 -18 66 -34 80c-27 24 -62 28 -87 28h-146v-218z" />
    <glyph glyph-name="C" unicode="C" horiz-adv-x="560" 
d="M389 165h104c-1 -43 -19 -100 -55 -133c-24 -22 -66 -42 -130 -42c-97 0 -156 40 -194 121c-31 66 -38 161 -38 221c0 58 6 167 44 238c47 86 118 108 187 108c62 0 103 -20 127 -42c5 -5 51 -47 52 -125h-102c0 23 -10 43 -24 56c-11 10 -29 19 -55 19
c-51 0 -81 -29 -101 -78c-21 -53 -24 -128 -24 -172c0 -92 14 -142 18 -156c14 -48 42 -99 106 -99c19 0 43 7 57 20c15 14 26 40 28 64z" />
    <glyph glyph-name="D" unicode="D" 
d="M128 668h91c103 0 189 -48 238 -101c51 -55 86 -141 86 -236c0 -79 -27 -163 -80 -224c-44 -50 -128 -107 -251 -107h-84v668zM228 576v-484c85 4 135 48 159 78c30 37 52 92 52 164c0 82 -27 135 -53 166c-28 34 -80 73 -158 76z" />
    <glyph glyph-name="E" unicode="E" 
d="M125 668h402v-90h-302v-184h260v-90h-260v-214h313v-90h-413v668z" />
    <glyph glyph-name="F" unicode="F" horiz-adv-x="560" 
d="M478 578h-250v-192h203v-90h-203v-296h-100v668h350v-90z" />
    <glyph glyph-name="G" unicode="G" 
d="M543 357v-329c-27 -13 -87 -38 -179 -38c-93 0 -171 27 -223 121c-34 62 -46 151 -46 218c0 72 11 168 54 237c42 68 110 112 210 112c73 0 110 -25 122 -34c30 -22 57 -63 61 -118h-101c-5 25 -19 40 -33 48c-18 11 -41 12 -50 12c-53 0 -103 -22 -133 -92
c-18 -43 -26 -107 -26 -161c0 -49 7 -117 28 -163c27 -60 71 -88 137 -88c43 0 70 10 79 14v172h-139v89h239z" />
    <glyph glyph-name="H" unicode="H" 
d="M529 0h-100v304h-218v-304h-100v668h100v-274h218v274h100v-668z" />
    <glyph glyph-name="I" unicode="I" horiz-adv-x="560" 
d="M469 0h-379v90h140v488h-119v90h338v-90h-119v-488h139v-90z" />
    <glyph glyph-name="J" unicode="J" horiz-adv-x="560" 
d="M425 668v-516c0 -64 -27 -100 -42 -116c-23 -24 -65 -46 -125 -46c-63 0 -103 23 -125 46c-37 38 -43 84 -43 116v64h100v-59c0 -3 0 -37 16 -56c7 -9 23 -20 51 -20c15 0 38 2 53 21c13 16 15 38 15 55v511h100z" />
    <glyph glyph-name="K" unicode="K" 
d="M605 0h-134l-269 308v-308h-100v668h100v-282l258 282h130l-305 -319z" />
    <glyph glyph-name="L" unicode="L" 
d="M571 0h-443v668h100v-578h343v-90z" />
    <glyph glyph-name="M" unicode="M" horiz-adv-x="720" 
d="M600 0h-100v486l-109 -271h-66l-110 271v-486h-96v668h115l127 -302l124 302h115v-668z" />
    <glyph glyph-name="N" unicode="N" 
d="M537 0h-102l-237 472v-472h-95v668h110l229 -454v454h95v-668z" />
    <glyph glyph-name="O" unicode="O" 
d="M555 334c0 -223 -107 -344 -235 -344c-122 0 -235 114 -235 344s113 344 235 344c52 0 124 -20 178 -108c40 -66 57 -149 57 -236zM451 334c0 79 -12 131 -28 169c-31 73 -79 83 -103 83c-42 0 -131 -33 -131 -252s89 -252 131 -252c41 0 131 33 131 252z" />
    <glyph glyph-name="P" unicode="P" 
d="M112 668h231c42 0 103 -4 154 -46c32 -26 67 -74 67 -151c0 -59 -23 -109 -57 -141c-33 -31 -86 -56 -159 -56h-136v-274h-100v668zM212 364h133c51 0 78 21 89 33c13 14 26 38 26 74c0 31 -7 57 -33 80s-51 27 -82 27h-133v-214z" />
    <glyph glyph-name="Q" unicode="Q" 
d="M622 0h-120l-54 69c-23 -17 -64 -39 -126 -39c-80 0 -145 31 -190 109c-34 58 -47 135 -47 215c0 214 115 324 238 324c58 0 129 -28 178 -106c20 -31 54 -99 54 -218c0 -35 -2 -70 -10 -109c-7 -36 -16 -66 -35 -102zM369 323l72 -91c6 30 10 60 10 122
c0 49 -8 110 -27 154c-29 65 -73 78 -105 78c-61 0 -130 -55 -130 -232c0 -39 3 -103 18 -147c21 -61 59 -85 118 -85c30 0 51 10 66 20l-142 181h120z" />
    <glyph glyph-name="R" unicode="R" 
d="M578 0h-119l-153 278h-78v-278h-100v668h205c61 0 113 -19 147 -50c33 -29 59 -80 59 -150c0 -48 -15 -83 -31 -106c-13 -19 -43 -55 -100 -70zM228 369h98c23 0 53 3 78 26c22 20 31 46 31 78c0 23 -5 55 -30 78c-19 17 -48 27 -79 27h-98v-209z" />
    <glyph glyph-name="S" unicode="S" 
d="M107 180h100c1 -27 11 -55 29 -73s47 -29 78 -29c29 0 62 9 84 29c18 16 30 41 30 69c0 20 -7 36 -12 45c-24 43 -79 68 -138 92c-50 21 -109 46 -138 100c-9 17 -19 44 -19 79c0 30 5 83 50 129c25 26 73 57 153 57s128 -31 151 -56c23 -24 46 -66 47 -120h-99
c-2 29 -16 54 -34 69c-17 13 -42 20 -65 20s-54 -8 -73 -26c-13 -12 -26 -33 -26 -65c0 -18 4 -34 16 -50c11 -15 27 -25 45 -35c27 -15 49 -23 59 -28l19 -10c46 -24 123 -53 153 -121c10 -23 15 -51 15 -71c0 -24 -2 -88 -52 -136c-54 -52 -125 -59 -166 -59
c-29 0 -99 3 -150 50c-35 32 -56 86 -57 140z" />
    <glyph glyph-name="T" unicode="T" horiz-adv-x="560" 
d="M506 578h-177v-578h-100v578h-175v90h452v-90z" />
    <glyph glyph-name="U" unicode="U" 
d="M544 668v-468c0 -86 -38 -135 -68 -160c-29 -25 -78 -50 -154 -50c-59 0 -119 16 -159 50c-26 22 -67 72 -67 160v468h100v-466c0 -41 16 -69 32 -85c17 -17 46 -36 94 -36c45 0 73 16 90 32c15 14 36 42 36 89v466h96z" />
    <glyph glyph-name="V" unicode="V" horiz-adv-x="560" 
d="M522 668l-179 -668h-127l-179 668h106l140 -527l138 527h101z" />
    <glyph glyph-name="W" unicode="W" horiz-adv-x="641" 
d="M571 668v-48c0 -311 -53 -566 -65 -620h-106l-77 264l-78 -264h-106c-50 203 -70 455 -70 618v50h100v-50c0 -107 9 -290 37 -478l78 268h78l77 -268c21 147 38 340 38 478v50h94z" />
    <glyph glyph-name="X" unicode="X" horiz-adv-x="560" 
d="M526 0h-114l-138 254l-136 -254h-105l191 343l-181 325h112l130 -239l128 239h103l-181 -327z" />
    <glyph glyph-name="Y" unicode="Y" horiz-adv-x="560" 
d="M525 668l-195 -356v-312h-100v312l-195 356h114l134 -256l133 256h109z" />
    <glyph glyph-name="Z" unicode="Z" horiz-adv-x="560" 
d="M475 0h-395v74l263 504h-258v90h377v-75l-261 -503h274v-90z" />
    <glyph glyph-name="bracketleft" unicode="[" 
d="M511 -52h-382v772h382v-93h-282v-586h282v-93z" />
    <glyph glyph-name="backslash" unicode="\" 
d="M514 -52h-105l-283 772h105z" />
    <glyph glyph-name="bracketright" unicode="]" 
d="M511 -52h-382v93h282v586h-282v93h382v-772z" />
    <glyph glyph-name="asciicircum" unicode="^" 
d="M535 404h-102l-113 205l-113 -205h-102l170 316h90z" />
    <glyph glyph-name="underscore" unicode="_" 
d="M640 -167h-640v79h640v-79z" />
    <glyph glyph-name="grave" unicode="`" 
d="M370 601h-73l-117 165h114z" />
    <glyph glyph-name="a" unicode="a" 
d="M525 0h-96v55c-41 -57 -108 -65 -150 -65c-57 0 -102 16 -131 40c-34 28 -51 68 -51 119c0 43 12 84 51 118c53 45 118 50 153 50h124v20c0 25 -3 57 -32 79c-21 16 -48 19 -70 19c-24 0 -50 -3 -68 -11c-23 -10 -33 -25 -36 -45h-102c6 48 29 90 84 114
c40 18 93 20 121 20c75 0 113 -17 132 -28c63 -38 71 -100 71 -145v-340zM425 213v39h-117c-22 0 -58 -3 -84 -29c-18 -18 -27 -44 -27 -70s10 -44 23 -57c17 -17 44 -27 84 -27c21 0 52 3 78 24c37 30 43 73 43 120z" />
    <glyph glyph-name="b" unicode="b" 
d="M197 720v-273c45 57 107 66 150 66c46 0 107 -8 155 -58c53 -55 65 -132 65 -203c0 -73 -12 -149 -66 -204c-49 -50 -108 -58 -154 -58c-83 0 -127 29 -155 66v-56h-95v720h100zM463 252c0 13 -1 76 -30 119c-21 32 -57 54 -102 54c-51 0 -88 -27 -107 -58
c-18 -29 -27 -76 -27 -115c0 -38 8 -87 29 -119c18 -28 51 -55 103 -55c35 0 76 12 105 57c26 40 29 87 29 117z" />
    <glyph glyph-name="c" unicode="c" horiz-adv-x="560" 
d="M387 155h103c-1 -58 -29 -104 -58 -127c-34 -28 -86 -38 -132 -38c-79 0 -142 29 -182 96c-34 56 -39 121 -39 166c0 61 11 137 61 193c51 58 115 68 166 68c26 0 81 -2 120 -31c25 -18 55 -55 59 -113h-100c-3 13 -15 55 -81 55c-39 0 -69 -14 -91 -46
c-8 -12 -30 -49 -30 -126c0 -38 6 -81 23 -114c23 -44 57 -59 99 -59c47 0 77 31 82 76z" />
    <glyph glyph-name="d" unicode="d" 
d="M543 0h-95v56c-28 -37 -72 -66 -154 -66c-51 0 -108 10 -155 58c-54 55 -66 131 -66 204c0 86 17 154 65 203c40 41 93 58 157 58c40 0 103 -9 148 -66v273h100v-720zM443 252c0 41 -9 85 -29 117c-20 31 -52 56 -103 56c-55 0 -88 -29 -104 -53
c-22 -32 -30 -79 -30 -115s8 -93 29 -124c19 -30 58 -55 106 -55c37 0 77 17 103 58c27 43 28 105 28 116z" />
    <glyph glyph-name="e" unicode="e" 
d="M549 249h-349c-2 -40 5 -89 21 -119c26 -48 65 -60 107 -60c51 0 83 5 104 46h103c-11 -41 -35 -74 -64 -94c-42 -28 -100 -32 -135 -32c-76 0 -150 16 -199 93c-37 58 -41 132 -41 169c0 89 24 152 63 195c47 52 108 66 165 66c87 0 141 -36 173 -78
c37 -49 55 -124 52 -186zM200 316h245c-2 34 -17 67 -39 89c-23 24 -52 31 -82 31c-42 0 -71 -14 -90 -35c-20 -22 -31 -58 -34 -85z" />
    <glyph glyph-name="f" unicode="f" horiz-adv-x="480" 
d="M436 415h-150v-415h-100v415h-151v88h151v42c0 46 7 93 46 131c46 45 113 48 150 48h54v-88h-44c-47 0 -72 -13 -84 -26c-8 -9 -22 -30 -22 -76v-31h150v-88z" />
    <glyph glyph-name="g" unicode="g" 
d="M535 503v-479c0 -44 -7 -100 -53 -143c-49 -46 -121 -52 -179 -52c-48 0 -89 4 -130 25c-44 23 -66 55 -71 105h100c6 -28 28 -51 101 -51c31 0 69 1 100 28c27 24 32 50 32 83v64c-24 -29 -66 -62 -139 -62c-33 0 -98 7 -148 57c-27 28 -65 83 -65 188
c0 72 15 139 62 188c31 32 81 59 150 59c88 0 128 -41 145 -65v55h95zM435 266c0 19 -2 69 -26 107c-22 36 -54 53 -98 53c-41 0 -73 -15 -96 -50c-19 -29 -28 -72 -28 -110c0 -40 8 -79 26 -107c20 -33 52 -53 98 -53c41 0 75 16 98 54c9 15 26 48 26 106z" />
    <glyph glyph-name="h" unicode="h" 
d="M530 0h-100v317c0 16 -1 54 -26 79c-19 19 -52 29 -78 29c-21 0 -50 -5 -76 -29c-30 -28 -36 -62 -36 -92v-304h-100v720h100v-266c28 34 68 59 141 59c24 0 83 -3 127 -44s48 -101 48 -137v-332z" />
    <glyph glyph-name="i" unicode="i" horiz-adv-x="400" 
d="M310 608h-136v120h136v-120zM302 0h-100v415h-166v88h266v-503z" />
    <glyph glyph-name="j" unicode="j" horiz-adv-x="400" 
d="M300 608h-136v120h136v-120zM292 503v-482c0 -67 -23 -111 -49 -137c-49 -49 -122 -51 -151 -51h-87v88h75c23 0 61 1 85 24c25 24 27 60 27 86v384h-128v88h228z" />
    <glyph glyph-name="k" unicode="k" horiz-adv-x="560" 
d="M535 0h-128l-217 243v-243h-100v720h100v-403l198 186h128l-238 -220z" />
    <glyph glyph-name="l" unicode="l" horiz-adv-x="400" 
d="M362 0h-87c-83 0 -127 29 -148 49c-49 46 -52 112 -52 140v531h100v-522c0 -44 11 -71 25 -85c22 -22 60 -25 87 -25h75v-88z" />
    <glyph glyph-name="m" unicode="m" horiz-adv-x="720" 
d="M636 0h-97v363c0 18 -5 34 -14 45c-11 14 -27 19 -44 19s-37 -5 -49 -16c-13 -12 -22 -34 -22 -61v-350h-97v363c0 14 -2 31 -15 46c-12 13 -26 18 -44 18c-20 0 -39 -7 -51 -19c-7 -7 -19 -24 -19 -58v-350h-97v503h93v-39c15 19 35 33 53 40c19 7 40 9 55 9
c20 0 39 -2 60 -13c20 -10 33 -24 41 -37c14 15 34 30 55 39c22 9 44 11 60 11c50 0 80 -17 97 -34c33 -33 35 -80 35 -101v-378z" />
    <glyph glyph-name="n" unicode="n" 
d="M549 0h-100v304c0 53 -17 77 -32 91c-23 22 -52 30 -82 30c-28 0 -66 -5 -98 -37c-14 -14 -40 -47 -40 -102v-286h-100v503h96v-68c19 25 44 46 67 58c30 15 68 20 98 20c62 0 109 -17 142 -49c39 -38 49 -88 49 -138v-326z" />
    <glyph glyph-name="o" unicode="o" 
d="M565 251c0 -83 -25 -140 -59 -180c-38 -45 -98 -81 -186 -81s-148 36 -186 81c-34 40 -59 97 -59 180c0 84 26 141 59 181c38 45 98 81 186 81s148 -36 186 -81c33 -40 59 -97 59 -181zM461 251c0 34 -5 78 -32 116c-17 24 -50 56 -109 56s-92 -32 -109 -56
c-27 -38 -32 -82 -32 -116c0 -33 5 -77 32 -115c17 -24 50 -56 109 -56s92 32 109 56c27 38 32 82 32 115z" />
    <glyph glyph-name="p" unicode="p" 
d="M192 503v-56c20 27 44 42 70 52s52 14 84 14c51 0 107 -10 155 -58c54 -55 66 -131 66 -203c0 -80 -13 -143 -57 -194c-34 -40 -82 -68 -164 -68c-26 0 -56 3 -85 16c-32 14 -52 34 -64 50v-223h-100v670h95zM463 252c0 78 -26 116 -33 125c-18 24 -49 48 -100 48
c-54 0 -85 -27 -104 -55c-25 -38 -29 -89 -29 -118c0 -28 3 -78 28 -117c18 -29 50 -57 105 -57c61 0 92 35 107 60c18 30 26 72 26 114z" />
    <glyph glyph-name="q" unicode="q" 
d="M543 -167h-100v223c-19 -24 -40 -39 -57 -47c-32 -16 -67 -19 -95 -19c-54 0 -114 13 -161 68c-46 54 -57 123 -57 194c0 67 11 143 61 198c49 54 112 63 160 63c33 0 58 -3 86 -15c30 -12 51 -29 68 -51v56h95v-670zM443 252c0 68 -21 105 -29 118
c-23 36 -57 55 -104 55c-54 0 -85 -27 -101 -50c-22 -31 -32 -78 -32 -123c0 -20 2 -79 30 -121c18 -26 50 -53 103 -53c54 0 86 26 105 57c21 33 28 77 28 117z" />
    <glyph glyph-name="r" unicode="r" horiz-adv-x="560" 
d="M493 336h-103v12c0 19 -4 41 -24 59c-18 16 -40 19 -57 19c-34 0 -59 -11 -75 -26s-32 -44 -32 -91v-309h-100v503h100v-56c13 17 33 33 40 38c34 25 70 28 94 28c51 0 94 -14 119 -39c17 -17 38 -50 38 -108v-30z" />
    <glyph glyph-name="s" unicode="s" horiz-adv-x="560" 
d="M471 380h-99c-3 13 -10 31 -31 44c-9 5 -28 14 -65 14c-20 0 -46 -2 -66 -15c-22 -14 -29 -35 -29 -53c0 -19 8 -35 37 -49c9 -4 29 -12 82 -23c28 -6 57 -10 86 -20c24 -8 48 -20 70 -41c24 -24 36 -52 36 -88c0 -61 -30 -98 -53 -116c-48 -38 -116 -43 -162 -43
c-64 0 -121 7 -161 39c-43 34 -52 86 -54 102h102c7 -33 27 -45 39 -50c18 -8 40 -12 74 -12c28 0 64 3 88 24c15 12 23 31 23 47c0 9 -2 24 -12 37c-20 27 -61 35 -119 47c-50 10 -117 23 -151 65c-15 19 -25 45 -25 76c0 50 27 84 43 100c38 37 92 48 161 48
c34 0 95 -3 136 -36c31 -25 46 -63 50 -97z" />
    <glyph glyph-name="t" unicode="t" horiz-adv-x="480" 
d="M423 114v-93c-48 -25 -92 -31 -129 -31c-64 0 -99 20 -120 42c-35 37 -38 91 -38 117v266h-103v88h103v121l100 27v-148h187v-88h-187v-256c0 -8 1 -43 19 -62c7 -7 23 -19 56 -19c39 0 79 14 112 36z" />
    <glyph glyph-name="u" unicode="u" 
d="M543 0h-96v68c-53 -72 -126 -78 -163 -78c-51 0 -100 10 -140 46c-42 38 -53 88 -53 141v326h100v-304c0 -27 3 -61 30 -89c26 -27 63 -32 87 -32c36 0 69 12 94 36c17 17 41 49 41 103v286h100v-503z" />
    <glyph glyph-name="v" unicode="v" horiz-adv-x="560" 
d="M537 503l-206 -503h-103l-206 503h108l152 -367l152 367h103z" />
    <glyph glyph-name="w" unicode="w" 
d="M585 503l-73 -503h-114l-78 217l-78 -217h-114l-73 503h102l52 -365l65 180h96l65 -180l52 365h98z" />
    <glyph glyph-name="x" unicode="x" horiz-adv-x="560" 
d="M528 0h-126l-126 183l-124 -183h-120l186 259l-177 244h125l116 -170l116 170h118l-175 -245z" />
    <glyph glyph-name="y" unicode="y" horiz-adv-x="560" 
d="M552 503l-312 -574c-13 -23 -33 -48 -58 -65c-30 -20 -58 -25 -86 -25h-41v88h38c13 0 28 2 42 14c7 6 16 17 21 27l85 156l-226 379h119l159 -281l149 281h110z" />
    <glyph glyph-name="z" unicode="z" horiz-adv-x="560" 
d="M500 0h-440v88l295 329h-274v86h398v-86l-295 -328h316v-89z" />
    <glyph glyph-name="braceleft" unicode="{" 
d="M515 -52h-125c-32 0 -78 2 -103 31c-14 16 -22 45 -22 94v127c0 17 -2 43 -15 58c-15 18 -41 20 -58 20h-67v92h67c15 0 42 2 58 21c13 16 15 40 15 57v147c0 24 1 69 22 94c24 29 69 31 103 31h125v-89h-77c-68 0 -73 -26 -73 -78v-129c0 -15 -2 -52 -27 -77
c-12 -11 -30 -19 -46 -23c15 -4 35 -13 46 -24c25 -24 27 -60 27 -76v-109c0 -36 5 -52 12 -60c14 -17 42 -18 61 -18h77v-89z" />
    <glyph glyph-name="bar" unicode="|" horiz-adv-x="480" 
d="M290 -52h-100v772h100v-772z" />
    <glyph glyph-name="braceright" unicode="}" 
d="M125 -52v89h77c19 0 47 1 61 18c7 8 12 24 12 60v109c0 16 2 52 27 76c11 11 31 20 46 24c-16 4 -34 12 -46 23c-25 25 -27 62 -27 77v129c0 52 -5 78 -73 78h-77v89h125c34 0 79 -2 103 -31c21 -25 22 -70 22 -94v-147c0 -17 2 -41 15 -57c16 -19 43 -21 58 -21h67v-92
h-67c-17 0 -43 -2 -58 -20c-13 -15 -15 -41 -15 -58v-127c0 -49 -8 -78 -22 -94c-25 -29 -71 -31 -103 -31h-125z" />
    <glyph glyph-name="asciitilde" unicode="~" 
d="M570 714v-96c-46 -42 -86 -54 -131 -54c-22 0 -42 2 -63 9c-27 8 -49 21 -73 34c-35 19 -62 32 -103 32c-31 0 -81 -7 -130 -59v96c45 43 90 54 131 54c14 0 39 -2 58 -7c12 -3 31 -11 78 -36c31 -16 58 -32 108 -32c49 0 93 24 125 59z" />
    <glyph glyph-name="afii10051" unicode="&#x402;" horiz-adv-x="720" 
d="M505 578h-199v-157h111c52 0 119 -7 175 -55c42 -36 69 -88 68 -159c-1 -72 -29 -119 -60 -148c-59 -55 -140 -59 -172 -59h-49v90h46c36 0 73 13 96 34c21 19 36 50 35 89c-1 37 -16 69 -37 87s-55 31 -94 31h-119v-331h-100v578h-153v90h452v-90z" />
    <glyph glyph-name="afii10052" unicode="&#x403;" horiz-adv-x="560" 
d="M500 578h-250v-578h-100v668h350v-90zM440 896l-117 -165h-73l76 165h114z" />
    <glyph glyph-name="afii10100" unicode="&#x453;" horiz-adv-x="480" 
d="M443 503v-88h-237v-415h-100v503h337zM400 766l-117 -165h-73l76 165h114z" />
    <glyph glyph-name="quotedblbase" unicode="&#x201e;" horiz-adv-x="560" 
d="M451 157l-38 -267h-76v267h114zM223 157l-38 -267h-76v267h114z" />
    <glyph glyph-name="ellipsis" unicode="&#x2026;" horiz-adv-x="720" 
d="M638 0h-127v117h127v-117zM424 0h-127v117h127v-117zM210 0h-127v117h127v-117z" />
    <glyph glyph-name="dagger" unicode="&#x2020;" 
d="M555 436h-185v-436h-100v436h-185v88h185v196h100v-196h185v-88z" />
    <glyph glyph-name="afii10058" unicode="&#x409;" horiz-adv-x="800" 
d="M475 668v-267h89c49 0 114 -8 166 -52c54 -46 65 -104 65 -150c0 -71 -28 -116 -57 -143c-30 -28 -81 -56 -164 -56h-199v578h-164v-178c0 -54 -2 -177 -12 -242c-6 -39 -18 -89 -59 -124c-36 -30 -76 -34 -114 -34h-21v90h20c35 0 56 23 69 58c10 27 15 62 17 126
c2 47 4 155 4 181v213h360zM475 90h88c30 0 68 4 96 31c20 18 32 47 32 81c0 42 -18 67 -34 81c-27 24 -62 28 -87 28h-95v-221z" />
    <glyph glyph-name="afii10059" unicode="&#x40a;" horiz-adv-x="800" 
d="M364 394v274h100v-267h89c49 0 114 -8 166 -52c54 -46 65 -104 65 -150c0 -71 -28 -116 -57 -143c-30 -28 -81 -56 -164 -56h-199v304h-208v-304h-100v668h100v-274h208zM464 90h88c30 0 68 4 96 31c20 18 32 47 32 81c0 42 -18 67 -34 81c-27 24 -62 28 -87 28h-95v-221
z" />
    <glyph glyph-name="afii10061" unicode="&#x40c;" 
d="M605 0h-134l-269 308v-308h-100v668h100v-282l258 282h130l-305 -319zM460 896l-117 -165h-73l76 165h114z" />
    <glyph glyph-name="afii10060" unicode="&#x40b;" horiz-adv-x="720" 
d="M502 578h-199v-157h99c34 0 117 -3 175 -55c55 -49 63 -114 63 -159v-207h-104v213c0 26 -10 65 -32 87c-14 14 -43 31 -94 31h-107v-331h-100v578h-153v90h452v-90z" />
    <glyph glyph-name="afii10145" unicode="&#x40f;" 
d="M111 668h100v-578h218v578h100v-668h-161v-142h-96v142h-161v668z" />
    <glyph glyph-name="afii10099" unicode="&#x452;" 
d="M243 -167v88h75c27 0 65 3 87 25c14 14 25 41 25 85v286c0 16 -1 54 -26 79c-19 19 -52 29 -78 29c-21 0 -50 -5 -76 -29c-30 -28 -36 -62 -36 -92v-304h-100v601h-70v70h70v49h100v-49h188v-70h-188v-147c28 34 68 59 141 59c24 0 83 -3 127 -44s48 -101 48 -137v-310
c0 -28 -3 -94 -52 -140c-21 -20 -65 -49 -148 -49h-87z" />
    <glyph glyph-name="quoteleft" unicode="&#x2018;" horiz-adv-x="400" 
d="M257 424h-114l38 266h76v-266z" />
    <glyph glyph-name="quoteright" unicode="&#x2019;" horiz-adv-x="400" 
d="M257 684l-38 -267h-76v267h114z" />
    <glyph glyph-name="quotedblleft" unicode="&#x201c;" horiz-adv-x="560" 
d="M451 424h-114l38 266h76v-266zM223 424h-114l38 266h76v-266z" />
    <glyph glyph-name="quotedblright" unicode="&#x201d;" horiz-adv-x="560" 
d="M451 684l-38 -267h-76v267h114zM223 684l-38 -267h-76v267h114z" />
    <glyph glyph-name="bullet" unicode="&#x2022;" 
d="M483 334c0 -90 -73 -163 -163 -163s-163 73 -163 163s73 163 163 163s163 -73 163 -163z" />
    <glyph glyph-name="endash" unicode="&#x2013;" 
d="M555 225h-470v90h470v-90z" />
    <glyph glyph-name="emdash" unicode="&#x2014;" horiz-adv-x="800" 
d="M743 225h-686v90h686v-90z" />
    <glyph glyph-name="trademark" unicode="&#x2122;" horiz-adv-x="720" 
d="M657 267h-77v276l-57 -139h-39l-57 139v-276h-74v401h82l69 -160l69 160h84v-401zM294 600h-92v-333h-77v333h-91v68h260v-68z" />
    <glyph glyph-name="afii10106" unicode="&#x459;" horiz-adv-x="720" 
d="M454 503v-184h56c49 0 100 -3 142 -35c39 -29 56 -71 56 -126c0 -59 -22 -95 -47 -116c-46 -40 -119 -42 -154 -42h-153v415h-155v-162c0 -117 -15 -162 -30 -188c-21 -38 -59 -65 -113 -65h-44v88h15c25 0 44 13 54 27c16 22 22 61 22 175v213h351zM454 88h58
c18 0 50 -1 72 16c13 10 24 27 24 54c0 37 -19 53 -25 57c-15 11 -41 16 -79 16h-50v-143z" />
    <glyph glyph-name="afii10107" unicode="&#x45a;" horiz-adv-x="720" 
d="M120 503v-196h234v196h100v-184h56c49 0 100 -3 142 -35c39 -29 56 -71 56 -126c0 -59 -22 -95 -47 -116c-46 -40 -119 -42 -154 -42h-153v219h-234v-219h-100v503h100zM454 88h58c18 0 50 -1 72 16c13 10 24 27 24 54c0 37 -19 53 -25 57c-15 11 -41 16 -79 16h-50v-143
z" />
    <glyph glyph-name="afii10109" unicode="&#x45c;" horiz-adv-x="560" 
d="M540 0h-128l-217 226v-226h-100v503h100v-203l198 203h128l-238 -237zM420 766l-117 -165h-73l76 165h114z" />
    <glyph glyph-name="afii10108" unicode="&#x45b;" 
d="M114 671v49h100v-49h188v-70h-188v-147c28 34 68 59 141 59c24 0 83 -3 127 -44s48 -101 48 -137v-332h-100v317c0 16 -1 54 -26 79c-19 19 -52 29 -78 29c-21 0 -50 -5 -76 -29c-30 -28 -36 -62 -36 -92v-304h-100v601h-70v70h70z" />
    <glyph glyph-name="afii10193" unicode="&#x45f;" 
d="M432 503h100v-503h-164v-140h-96v140h-164v503h100v-415h224v415z" />
    <glyph glyph-name="afii10062" unicode="&#x40e;" horiz-adv-x="560" 
d="M38 668h119l155 -301l136 301h110l-270 -572c-18 -38 -43 -64 -66 -77c-11 -6 -39 -19 -86 -19h-44v90h41c14 0 33 5 42 12c5 4 17 19 21 27l62 127zM435 851v-10c0 -33 -13 -60 -31 -78c-31 -30 -79 -34 -114 -34s-83 4 -114 34c-18 18 -31 45 -31 78v10h85v-8
c0 -7 1 -18 12 -28c13 -13 31 -14 48 -14s35 1 48 14c11 10 12 21 12 28v8h85z" />
    <glyph glyph-name="afii10110" unicode="&#x45e;" horiz-adv-x="560" 
d="M552 503l-312 -574c-13 -23 -33 -48 -58 -65c-30 -20 -58 -25 -86 -25h-41v88h38c13 0 28 2 42 14c7 6 16 17 21 27l85 156l-226 379h119l159 -281l149 281h110zM433 728v-12c0 -28 -12 -61 -33 -82c-33 -32 -84 -36 -120 -36s-87 4 -120 36c-21 21 -33 54 -33 82v12h87
v-10c0 -6 0 -21 12 -32c13 -12 37 -14 54 -14s41 2 54 14c12 11 12 26 12 32v10h87z" />
    <glyph glyph-name="afii10057" unicode="&#x408;" horiz-adv-x="560" 
d="M425 668v-516c0 -64 -27 -100 -42 -116c-23 -24 -65 -46 -125 -46c-63 0 -103 23 -125 46c-37 38 -43 84 -43 116v64h100v-59c0 -3 0 -37 16 -56c7 -9 23 -20 51 -20c15 0 38 2 53 21c13 16 15 38 15 55v511h100z" />
    <glyph glyph-name="currency" unicode="&#xa4;" 
d="M578 13h-66l-67 67c-47 -32 -97 -38 -125 -38c-37 0 -83 10 -125 38l-67 -67h-66v62l69 69c-22 34 -39 80 -39 125c0 37 12 84 39 125l-69 70v62h66l67 -68c50 35 103 39 125 39c47 0 91 -17 125 -39l67 68h66v-62l-69 -70c25 -39 39 -85 39 -125c0 -35 -11 -83 -39 -125
l69 -69v-62zM459 269c0 35 -13 71 -41 99c-29 29 -65 40 -98 40c-41 0 -74 -16 -98 -40c-23 -23 -41 -58 -41 -99c0 -40 16 -75 41 -99c24 -24 57 -40 98 -40s74 16 97 39c25 24 42 59 42 100z" />
    <glyph glyph-name="afii10050" unicode="&#x490;" horiz-adv-x="560" 
d="M500 578h-250v-578h-100v668h269v98h92z" />
    <glyph glyph-name="section" unicode="&#xa7;" 
d="M468 700v-92c-37 22 -83 38 -123 38c-20 0 -38 -4 -54 -15c-15 -10 -24 -24 -24 -46c0 -40 33 -56 77 -72l32 -12c25 -9 62 -21 86 -50c8 -10 25 -35 25 -75c0 -29 -7 -50 -21 -69s-36 -36 -63 -47c15 -7 76 -40 76 -121c0 -50 -21 -85 -49 -109
c-29 -25 -70 -40 -124 -40c-72 0 -115 17 -142 31v98c68 -41 117 -42 137 -42c49 0 77 25 77 62c0 50 -47 66 -75 76l-34 12c-21 8 -65 23 -89 50s-27 64 -27 77c0 29 8 55 25 75c14 16 40 33 60 42c-44 23 -69 66 -69 115c0 24 7 64 45 99c35 33 79 45 131 45
c55 0 94 -14 123 -30zM395 365c0 43 -29 68 -75 68s-75 -25 -75 -68s29 -68 75 -68s75 25 75 68z" />
    <glyph glyph-name="afii10023" unicode="&#x401;" 
d="M125 668h402v-90h-302v-184h260v-90h-260v-214h313v-90h-413v668zM480 733h-94v115h94v-115zM259 733h-94v115h94v-115z" />
    <glyph glyph-name="copyright" unicode="&#xa9;" horiz-adv-x="800" 
d="M400 678c102 0 181 -39 241 -99c42 -42 103 -122 103 -245s-61 -203 -103 -245c-60 -60 -139 -99 -241 -99s-181 39 -241 99c-42 42 -103 122 -103 245s61 203 103 245c60 60 139 99 241 99zM400 618c-68 0 -140 -25 -198 -82c-69 -68 -84 -147 -84 -202s15 -134 84 -202
c58 -57 130 -82 198 -82s140 25 198 82c69 68 84 147 84 202s-15 134 -84 202c-58 57 -130 82 -198 82zM446 249h73c-1 -24 -10 -59 -29 -79c-16 -17 -43 -31 -87 -31c-52 0 -92 19 -118 70c-12 23 -23 61 -23 126c0 81 18 120 30 140c30 48 73 58 108 58
c34 0 64 -10 83 -27c20 -18 33 -49 33 -79h-73c0 15 -7 25 -13 31c-8 8 -17 10 -25 10c-28 0 -43 -12 -54 -36c-8 -19 -15 -46 -15 -97c0 -42 4 -68 11 -87c8 -24 22 -46 55 -46c14 0 25 5 34 17s10 28 10 30z" />
    <glyph glyph-name="afii10053" unicode="&#x404;" horiz-adv-x="560" 
d="M383 394v-90h-199c1 -33 6 -90 18 -130c13 -41 40 -93 111 -93c27 0 45 11 56 22c12 12 23 30 24 55h104c0 -78 -46 -120 -55 -128c-41 -35 -94 -40 -128 -40c-100 0 -158 39 -196 121c-31 66 -38 161 -38 221c0 58 6 167 44 238c47 87 117 108 187 108
c39 0 88 -5 127 -40c25 -22 52 -63 52 -121h-102c-1 23 -12 43 -26 54c-8 6 -23 15 -50 15c-53 0 -82 -27 -101 -70c-18 -41 -26 -92 -27 -122h199z" />
    <glyph glyph-name="guillemotleft" unicode="&#xab;" 
d="M551 28h-99l-113 238l113 237h99l-113 -237zM301 28h-99l-113 238l113 237h99l-113 -237z" />
    <glyph glyph-name="logicalnot" unicode="&#xac;" 
d="M555 87h-90v161h-380v90h470v-251z" />
    <glyph glyph-name="registered" unicode="&#xae;" horiz-adv-x="800" 
d="M400 678c184 0 344 -149 344 -344s-160 -344 -344 -344s-344 149 -344 344s160 344 344 344zM400 618c-152 0 -282 -124 -282 -284s130 -284 282 -284s282 124 282 284s-130 284 -282 284zM556 144h-85l-73 155h-41v-155h-72v383h131c42 0 70 -16 85 -29
c16 -14 36 -40 36 -85c0 -50 -25 -89 -69 -104zM357 357h53c23 0 38 10 45 19c8 10 11 24 11 36c0 13 -4 28 -14 39c-9 10 -25 17 -42 17h-53v-111z" />
    <glyph glyph-name="afii10056" unicode="&#x407;" horiz-adv-x="560" 
d="M469 0h-379v90h140v488h-119v90h338v-90h-119v-488h139v-90zM437 736h-92v113h92v-113zM216 736h-92v113h92v-113z" />
    <glyph glyph-name="degree" unicode="&#xb0;" horiz-adv-x="560" 
d="M476 534c0 -47 -19 -99 -57 -138c-39 -39 -91 -58 -139 -58s-100 18 -140 59c-37 38 -56 87 -56 137c0 40 12 92 59 139c45 44 95 57 137 57s92 -13 137 -57c47 -46 59 -99 59 -139zM387 534c0 27 -10 54 -31 75c-22 22 -50 32 -76 32c-22 0 -50 -7 -75 -31
c-14 -14 -32 -38 -32 -76c0 -22 7 -51 31 -75c22 -22 50 -32 76 -32s55 10 77 33c23 23 30 52 30 74z" />
    <glyph glyph-name="plusminus" unicode="&#xb1;" 
d="M556 353h-191v-191h-90v191h-190v90h190v190h90v-190h191v-90zM555 0h-470v90h470v-90z" />
    <glyph glyph-name="afii10055" unicode="&#x406;" horiz-adv-x="560" 
d="M469 0h-379v90h140v488h-119v90h338v-90h-119v-488h139v-90z" />
    <glyph glyph-name="afii10103" unicode="&#x456;" horiz-adv-x="400" 
d="M310 608h-136v120h136v-120zM302 0h-100v415h-166v88h266v-503z" />
    <glyph glyph-name="afii10098" unicode="&#x491;" horiz-adv-x="480" 
d="M352 503v100h92l-11 -188h-237v-415h-100v503h256z" />
    <glyph glyph-name="mu" unicode="&#xb5;" 
d="M544 0h-95v68c-14 -19 -35 -40 -66 -57c-34 -18 -61 -21 -96 -21s-70 4 -106 29v-186h-89v670h100v-304c0 -52 20 -78 30 -88c14 -14 40 -33 89 -33c44 0 74 18 92 36c19 18 41 51 41 103v286h100v-503z" />
    <glyph glyph-name="mu" unicode="&#x3bc;" 
d="M544 0h-95v68c-14 -19 -35 -40 -66 -57c-34 -18 -61 -21 -96 -21s-70 4 -106 29v-186h-89v670h100v-304c0 -52 20 -78 30 -88c14 -14 40 -33 89 -33c44 0 74 18 92 36c19 18 41 51 41 103v286h100v-503z" />
    <glyph glyph-name="paragraph" unicode="&#xb6;" horiz-adv-x="719" 
d="M627 630h-65v-797h-89v797h-104v-797h-89v536c-52 -2 -103 15 -135 41c-34 28 -59 75 -59 134c0 56 25 105 61 133c16 13 63 43 163 43h317v-90z" />
    <glyph glyph-name="afii10071" unicode="&#x451;" 
d="M544 231h-349c-2 -38 6 -84 38 -116c34 -34 76 -39 110 -39c20 0 38 2 56 12c15 9 20 18 23 28h104c-1 -17 -7 -46 -35 -76c-31 -33 -74 -50 -151 -50c-56 0 -131 11 -184 67c-32 34 -65 96 -65 191s30 168 76 210c29 27 79 55 158 55c69 0 122 -20 159 -60
c54 -58 60 -138 60 -191v-31zM195 317h245c-1 35 -15 60 -29 75c-19 21 -50 35 -89 35c-35 0 -62 -11 -81 -25c-36 -26 -44 -61 -46 -85zM260 604h-94v115h94v-115zM481 604h-94v115h94v-115z" />
    <glyph glyph-name="afii61352" unicode="&#x2116;" horiz-adv-x="932" 
d="M527 0h-102l-227 470v-470h-95v668h110l219 -452v452h95v-668zM725 574c38 0 68 -14 87 -33s35 -48 35 -95c0 -52 -20 -80 -33 -93c-23 -24 -59 -36 -89 -36c-33 0 -70 13 -92 38c-21 23 -30 59 -30 90c0 37 13 73 34 95c21 21 54 34 88 34zM784 447c0 21 -5 42 -17 55
c-9 10 -28 19 -41 19s-31 -4 -45 -23c-11 -16 -15 -34 -15 -52c0 -17 2 -33 12 -48c14 -22 33 -27 47 -27c15 0 34 6 47 27c9 15 12 33 12 49zM847 236h-244v54h244v-54z" />
    <glyph glyph-name="afii10101" unicode="&#x454;" horiz-adv-x="560" 
d="M371 300v-80h-192c-1 -27 2 -63 20 -91c29 -46 72 -54 113 -53c17 0 43 2 64 19c9 7 24 23 26 50h104c-1 -31 -10 -74 -54 -111c-46 -39 -97 -44 -141 -44c-76 0 -138 15 -185 80c-18 24 -51 80 -51 179c0 83 23 148 66 196c46 51 100 68 161 68c45 0 88 -9 124 -33
c48 -32 64 -72 70 -107h-104c-1 11 -6 24 -19 35c-19 16 -46 19 -66 19c-29 0 -70 -6 -98 -38c-20 -23 -29 -59 -30 -89h192z" />
    <glyph glyph-name="guillemotright" unicode="&#xbb;" 
d="M551 266l-113 -238h-99l113 238l-113 237h99zM301 266l-113 -238h-99l113 238l-113 237h99z" />
    <glyph glyph-name="afii10105" unicode="&#x458;" horiz-adv-x="400" 
d="M300 608h-136v120h136v-120zM292 503v-482c0 -67 -23 -111 -49 -137c-49 -49 -122 -51 -151 -51h-87v88h75c23 0 61 1 85 24c25 24 27 60 27 86v384h-128v88h228z" />
    <glyph glyph-name="afii10054" unicode="&#x405;" 
d="M107 180h100c1 -27 11 -55 29 -73s47 -29 78 -29c29 0 62 9 84 29c18 16 30 41 30 69c0 20 -7 36 -12 45c-24 43 -79 68 -138 92c-50 21 -109 46 -138 100c-9 17 -19 44 -19 79c0 30 5 83 50 129c25 26 73 57 153 57s128 -31 151 -56c23 -24 46 -66 47 -120h-99
c-2 29 -16 54 -34 69c-17 13 -42 20 -65 20s-54 -8 -73 -26c-13 -12 -26 -33 -26 -65c0 -18 4 -34 16 -50c11 -15 27 -25 45 -35c27 -15 49 -23 59 -28l19 -10c46 -24 123 -53 153 -121c10 -23 15 -51 15 -71c0 -24 -2 -88 -52 -136c-54 -52 -125 -59 -166 -59
c-29 0 -99 3 -150 50c-35 32 -56 86 -57 140z" />
    <glyph glyph-name="afii10102" unicode="&#x455;" horiz-adv-x="560" 
d="M471 380h-99c-3 13 -10 31 -31 44c-9 5 -28 14 -65 14c-20 0 -46 -2 -66 -15c-22 -14 -29 -35 -29 -53c0 -19 8 -35 37 -49c9 -4 29 -12 82 -23c28 -6 57 -10 86 -20c24 -8 48 -20 70 -41c24 -24 36 -52 36 -88c0 -61 -30 -98 -53 -116c-48 -38 -116 -43 -162 -43
c-64 0 -121 7 -161 39c-43 34 -52 86 -54 102h102c7 -33 27 -45 39 -50c18 -8 40 -12 74 -12c28 0 64 3 88 24c15 12 23 31 23 47c0 9 -2 24 -12 37c-20 27 -61 35 -119 47c-50 10 -117 23 -151 65c-15 19 -25 45 -25 76c0 50 27 84 43 100c38 37 92 48 161 48
c34 0 95 -3 136 -36c31 -25 46 -63 50 -97z" />
    <glyph glyph-name="afii10104" unicode="&#x457;" horiz-adv-x="400" 
d="M302 0h-100v415h-166v88h266v-503zM357 606h-92v113h92v-113zM136 606h-92v113h92v-113z" />
    <glyph glyph-name="afii10017" unicode="&#x410;" horiz-adv-x="560" 
d="M526 0h-104l-49 184h-192l-49 -184h-99l180 668h133zM352 265l-76 284l-76 -284h152z" />
    <glyph glyph-name="afii10018" unicode="&#x411;" 
d="M106 0v668h409v-90h-309v-179h133c47 0 114 -3 168 -50c28 -24 63 -72 63 -152c0 -69 -27 -113 -57 -141s-81 -56 -164 -56h-243zM206 90h139c42 0 72 15 89 31c19 18 32 47 32 82c0 41 -18 66 -34 80s-44 30 -87 30h-139v-223z" />
    <glyph glyph-name="afii10019" unicode="&#x412;" 
d="M94 668h240c43 0 105 -6 151 -43c30 -24 60 -65 60 -136c0 -67 -36 -113 -87 -136c67 -25 107 -82 107 -156c0 -58 -22 -108 -57 -141c-30 -28 -81 -56 -164 -56h-250v668zM194 394h141c22 0 54 3 79 26c22 20 27 44 27 66c0 23 -6 50 -30 69c-20 16 -49 23 -76 23h-141
v-184zM194 90h146c35 0 69 11 89 30c19 18 32 46 32 80c0 40 -18 66 -34 80c-27 24 -62 28 -87 28h-146v-218z" />
    <glyph glyph-name="afii10020" unicode="&#x413;" horiz-adv-x="560" 
d="M500 578h-250v-578h-100v668h350v-90z" />
    <glyph glyph-name="afii10021" unicode="&#x414;" 
d="M519 90h76v-232h-96v142h-385v-142h-96v232h48c25 27 49 63 62 93c25 59 26 147 26 180v305h365v-578zM250 578v-201c0 -52 -2 -131 -15 -179c-12 -47 -35 -81 -61 -108h245v488h-169z" />
    <glyph glyph-name="afii10022" unicode="&#x415;" 
d="M125 668h402v-90h-302v-184h260v-90h-260v-214h313v-90h-413v668z" />
    <glyph glyph-name="afii10024" unicode="&#x416;" horiz-adv-x="720" 
d="M410 668v-282h10l151 282h107l-177 -317l202 -351h-110l-173 308h-10v-308h-100v308h-10l-173 -308h-110l202 351l-177 317h107l151 -282h10v282h100z" />
    <glyph glyph-name="afii10025" unicode="&#x417;" 
d="M247 394h55c22 0 54 3 79 26c25 22 27 49 27 69c0 23 -4 51 -27 72c-22 20 -56 27 -82 27c-28 0 -62 -8 -78 -23c-12 -10 -23 -30 -24 -54h-102c1 40 16 86 43 115c44 47 108 52 161 52c43 0 103 -3 154 -47c40 -34 60 -83 59 -135c0 -35 -10 -62 -21 -81
c-18 -32 -42 -50 -68 -60c31 -9 54 -26 73 -49c27 -33 36 -67 36 -110c1 -89 -38 -139 -78 -166c-16 -11 -64 -40 -164 -40c-48 0 -113 8 -156 52c-26 28 -46 73 -47 123h104c2 -23 13 -49 28 -63c21 -19 55 -21 74 -21c30 0 69 3 99 30c19 17 37 47 36 89
c-1 41 -17 65 -34 80c-27 24 -62 28 -87 28h-60v86z" />
    <glyph glyph-name="afii10026" unicode="&#x418;" 
d="M540 0h-100v478l-239 -478h-100v668h100v-478l239 478h100v-668z" />
    <glyph glyph-name="afii10027" unicode="&#x419;" 
d="M465 851v-10c0 -33 -13 -60 -31 -78c-31 -30 -79 -34 -114 -34s-83 4 -114 34c-18 18 -31 45 -31 78v10h85v-8c0 -7 1 -18 12 -28c13 -13 31 -14 48 -14s35 1 48 14c11 10 12 21 12 28v8h85zM540 0h-100v478l-239 -478h-100v668h100v-478l239 478h100v-668z" />
    <glyph glyph-name="afii10028" unicode="&#x41a;" 
d="M605 0h-134l-269 308v-308h-100v668h100v-282l258 282h130l-305 -319z" />
    <glyph glyph-name="afii10029" unicode="&#x41b;" 
d="M422 578h-169v-178c0 -54 -2 -177 -12 -242c-6 -39 -18 -89 -59 -124c-36 -30 -76 -34 -114 -34h-23v90h22c35 0 56 23 69 58c10 27 15 62 17 126c2 47 4 155 4 181v213h365v-668h-100v578z" />
    <glyph glyph-name="afii10030" unicode="&#x41c;" horiz-adv-x="740" 
d="M291 668l77 -268h5l76 268h156v-668h-95v557h-8l-92 -340h-80l-92 340h-8v-557h-95v668h156z" />
    <glyph glyph-name="afii10031" unicode="&#x41d;" 
d="M529 0h-100v304h-218v-304h-100v668h100v-274h218v274h100v-668z" />
    <glyph glyph-name="afii10032" unicode="&#x41e;" 
d="M555 334c0 -223 -107 -344 -235 -344c-122 0 -235 114 -235 344s113 344 235 344c52 0 124 -20 178 -108c40 -66 57 -149 57 -236zM451 334c0 79 -12 131 -28 169c-31 73 -79 83 -103 83c-42 0 -131 -33 -131 -252s89 -252 131 -252c41 0 131 33 131 252z" />
    <glyph glyph-name="afii10033" unicode="&#x41f;" 
d="M111 668h418v-668h-100v578h-218v-578h-100v668z" />
    <glyph glyph-name="afii10034" unicode="&#x420;" 
d="M112 668h231c42 0 103 -4 154 -46c32 -26 67 -74 67 -151c0 -59 -23 -109 -57 -141c-33 -31 -86 -56 -159 -56h-136v-274h-100v668zM212 364h133c51 0 78 21 89 33c13 14 26 38 26 74c0 31 -7 57 -33 80s-51 27 -82 27h-133v-214z" />
    <glyph glyph-name="afii10035" unicode="&#x421;" horiz-adv-x="560" 
d="M389 165h104c-1 -43 -19 -100 -55 -133c-24 -22 -66 -42 -130 -42c-97 0 -156 40 -194 121c-31 66 -38 161 -38 221c0 58 6 167 44 238c47 86 118 108 187 108c62 0 103 -20 127 -42c5 -5 51 -47 52 -125h-102c0 23 -10 43 -24 56c-11 10 -29 19 -55 19
c-51 0 -81 -29 -101 -78c-21 -53 -24 -128 -24 -172c0 -92 14 -142 18 -156c14 -48 42 -99 106 -99c19 0 43 7 57 20c15 14 26 40 28 64z" />
    <glyph glyph-name="afii10036" unicode="&#x422;" horiz-adv-x="560" 
d="M506 578h-177v-578h-100v578h-175v90h452v-90z" />
    <glyph glyph-name="afii10037" unicode="&#x423;" horiz-adv-x="560" 
d="M38 668h119l155 -301l136 301h110l-270 -572c-18 -38 -43 -64 -66 -77c-11 -6 -39 -19 -86 -19h-44v90h41c14 0 33 5 42 12c5 4 17 19 21 27l62 127z" />
    <glyph glyph-name="afii10038" unicode="&#x424;" horiz-adv-x="720" 
d="M410 691v-80h10c80 0 143 -39 175 -79c43 -52 55 -132 55 -194c0 -83 -21 -143 -55 -186c-54 -68 -124 -79 -175 -79h-10v-83h-100v83h-10c-51 0 -121 11 -175 79c-34 43 -55 103 -55 186c0 62 12 142 55 194c32 40 95 79 175 79h10v80h100zM410 531v-378h11
c41 0 75 20 94 44c35 44 35 128 35 145c0 50 -10 110 -34 143c-28 39 -67 46 -95 46h-11zM310 531h-11c-28 0 -67 -7 -95 -46c-24 -33 -34 -93 -34 -143c0 -17 0 -101 35 -145c19 -24 53 -44 94 -44h11v378z" />
    <glyph glyph-name="afii10039" unicode="&#x425;" horiz-adv-x="560" 
d="M526 0h-114l-138 254l-136 -254h-105l191 343l-181 325h112l130 -239l128 239h103l-181 -327z" />
    <glyph glyph-name="afii10040" unicode="&#x426;" 
d="M110 668h100v-578h208v578h100v-578h76v-232h-96v142h-388v668z" />
    <glyph glyph-name="afii10041" unicode="&#x427;" horiz-adv-x="560" 
d="M48 668h100v-179c0 -25 1 -61 18 -87c23 -34 57 -37 89 -37c23 0 55 1 95 10v293h100v-668h-100v287c-45 -10 -89 -12 -108 -12c-69 0 -122 21 -152 54c-40 44 -42 104 -42 153v186z" />
    <glyph glyph-name="afii10042" unicode="&#x428;" horiz-adv-x="720" 
d="M64 668h100v-578h146v578h100v-578h146v578h100v-668h-592v668z" />
    <glyph glyph-name="afii10043" unicode="&#x429;" horiz-adv-x="720" 
d="M36 668h100v-578h146v578h100v-578h146v578h100v-578h76v-232h-96v142h-572v668z" />
    <glyph glyph-name="afii10044" unicode="&#x42a;" horiz-adv-x="720" 
d="M310 401h124c49 0 114 -8 166 -52c49 -41 66 -95 65 -152c-1 -69 -27 -113 -57 -141s-81 -56 -164 -56h-234v578h-175v90h275v-267zM310 90h130c42 0 72 15 89 31c19 18 32 47 32 82c0 40 -18 66 -34 80c-27 24 -62 28 -87 28h-130v-221z" />
    <glyph glyph-name="afii10045" unicode="&#x42b;" horiz-adv-x="720" 
d="M60 668h100v-267h89c49 0 114 -8 166 -52c54 -46 65 -104 65 -150c0 -71 -28 -116 -57 -143c-30 -28 -81 -56 -164 -56h-199v668zM160 90h88c30 0 68 4 96 31c20 18 32 47 32 81c0 42 -18 67 -34 81c-27 24 -62 28 -87 28h-95v-221zM564 668h100v-668h-100v668z" />
    <glyph glyph-name="afii10046" unicode="&#x42c;" 
d="M107 668h100v-267h130c49 0 114 -8 166 -52c49 -41 66 -95 65 -152c-1 -69 -27 -113 -57 -141s-81 -56 -164 -56h-240v668zM207 90h136c42 0 72 15 89 31c19 18 32 47 32 82c0 40 -18 66 -34 80c-27 24 -62 28 -87 28h-136v-221z" />
    <glyph glyph-name="afii10047" unicode="&#x42d;" horiz-adv-x="560" 
d="M63 158h104c1 -25 12 -43 24 -55c11 -11 29 -22 56 -22c71 0 98 52 111 93c12 40 17 97 18 130h-199v90h199c-1 30 -9 81 -27 122c-19 43 -48 70 -101 70c-27 0 -42 -9 -50 -15c-14 -11 -25 -31 -26 -54h-102c0 58 27 99 52 121c39 35 88 40 127 40
c70 0 140 -21 187 -108c38 -71 44 -180 44 -238c0 -60 -7 -155 -38 -221c-38 -82 -96 -121 -196 -121c-34 0 -87 5 -128 40c-9 8 -55 50 -55 128z" />
    <glyph glyph-name="afii10048" unicode="&#x42e;" horiz-adv-x="720" 
d="M164 394h72c4 61 27 153 71 211c39 52 86 73 148 73c48 0 105 -13 153 -73c50 -63 72 -176 72 -271s-22 -208 -72 -271c-48 -60 -105 -73 -153 -73c-62 0 -109 21 -148 73c-42 56 -70 155 -71 241h-72v-304h-100v668h100v-274zM334 334c0 -107 26 -172 28 -177
c12 -30 37 -75 93 -75s81 45 93 75c2 5 28 70 28 177s-26 172 -28 177c-12 30 -37 75 -93 75s-81 -45 -93 -75c-2 -5 -28 -70 -28 -177z" />
    <glyph glyph-name="afii10049" unicode="&#x42f;" 
d="M70 0l154 299c-53 10 -86 40 -103 65s-29 59 -29 104c0 81 33 127 59 150c50 46 114 50 156 50h196v-668h-100v279h-78l-138 -279h-117zM403 578h-98c-31 0 -60 -10 -79 -27c-25 -23 -30 -55 -30 -78c0 -32 9 -58 31 -78c25 -23 55 -26 78 -26h98v209z" />
    <glyph glyph-name="afii10065" unicode="&#x430;" 
d="M525 0h-100v47c-54 -49 -112 -57 -146 -57c-62 0 -104 19 -131 42c-24 20 -51 57 -51 114c0 42 18 104 81 138c22 12 69 32 171 32h76v19c0 22 1 60 -24 81c-13 11 -36 18 -74 18c-51 0 -71 -10 -80 -15c-19 -12 -24 -28 -25 -42h-102c3 58 37 92 67 109
c22 13 63 27 144 27c39 0 104 -3 145 -41c44 -41 49 -110 49 -159v-313zM425 221v17h-67c-37 0 -67 1 -98 -9s-59 -31 -59 -79c0 -26 9 -44 21 -56c15 -15 38 -25 67 -25c41 0 82 17 107 51c14 19 29 51 29 101z" />
    <glyph glyph-name="afii10066" unicode="&#x431;" 
d="M535 711v-96c-22 -9 -39 -12 -63 -14c-34 -3 -54 -2 -85 -3l-48 -2c-24 -1 -67 -5 -101 -25c-26 -15 -39 -35 -48 -63c-8 -26 -12 -60 -11 -87c15 22 38 45 60 58c27 16 64 24 97 24c89 0 145 -38 179 -78c40 -47 59 -103 59 -174c0 -83 -26 -140 -59 -180
c-38 -45 -98 -81 -186 -81c-100 0 -158 46 -186 81c-51 62 -59 142 -59 227c0 126 10 189 21 225c22 73 64 115 102 135c37 20 95 29 141 31l50 2c19 1 55 3 73 6c19 3 44 8 64 14zM470 246c0 43 -9 81 -32 113c-27 38 -65 54 -109 54s-82 -16 -109 -54
c-23 -32 -32 -70 -32 -113c0 -50 13 -86 32 -112c26 -35 66 -54 109 -54s83 19 109 54c19 26 32 62 32 112z" />
    <glyph glyph-name="afii10067" unicode="&#x432;" 
d="M116 503h235c36 0 99 -3 140 -39c18 -16 39 -46 39 -93c0 -25 -7 -51 -20 -68c-13 -16 -36 -30 -57 -37c28 -5 52 -20 68 -37c17 -20 28 -49 28 -82c0 -43 -18 -81 -47 -106c-46 -39 -112 -41 -144 -41h-242v503zM216 303h117c20 0 55 -2 76 16c10 8 17 21 17 41
c0 18 -7 33 -18 42c-18 15 -53 15 -70 15h-122v-114zM216 86h138c20 0 50 2 71 20c11 10 20 25 20 47c0 29 -13 46 -28 56c-18 11 -42 14 -66 14h-135v-137z" />
    <glyph glyph-name="afii10068" unicode="&#x433;" horiz-adv-x="480" 
d="M443 503v-88h-237v-415h-100v503h337z" />
    <glyph glyph-name="afii10069" unicode="&#x434;" 
d="M156 503h356v-415h73v-228h-96v140h-363v-140h-96v228h48c33 26 50 57 60 83c15 42 18 89 18 130v202zM252 415v-130c0 -29 -2 -72 -10 -104c-14 -57 -39 -83 -50 -93h220v327h-160z" />
    <glyph glyph-name="afii10070" unicode="&#x435;" 
d="M544 231h-349c-2 -38 6 -84 38 -116c34 -34 76 -39 110 -39c20 0 38 2 56 12c15 9 20 18 23 28h104c-1 -17 -7 -46 -35 -76c-31 -33 -74 -50 -151 -50c-56 0 -131 11 -184 67c-32 34 -65 96 -65 191s30 168 76 210c29 27 79 55 158 55c69 0 122 -20 159 -60
c54 -58 60 -138 60 -191v-31zM195 317h245c-1 35 -15 60 -29 75c-19 21 -50 35 -89 35c-35 0 -62 -11 -81 -25c-36 -26 -44 -61 -46 -85z" />
    <glyph glyph-name="afii10072" unicode="&#x436;" horiz-adv-x="720" 
d="M410 503v-203h10l128 203h106l-155 -238l170 -265h-108l-141 226h-10v-226h-100v226h-10l-141 -226h-108l170 265l-156 238h106l129 -203h10v203h100z" />
    <glyph glyph-name="afii10073" unicode="&#x437;" horiz-adv-x="560" 
d="M222 303h37c23 0 53 0 77 13c22 12 30 28 30 48c0 19 -6 35 -23 47c-21 14 -55 16 -72 16c-42 0 -60 -9 -68 -14c-7 -5 -22 -17 -26 -42h-102c6 70 49 103 67 114c37 23 89 28 133 28c38 0 96 -3 141 -36s54 -78 54 -107c0 -27 -8 -55 -23 -73c-13 -17 -35 -29 -53 -35
c21 -7 42 -19 56 -33c24 -23 32 -50 32 -81c0 -66 -35 -105 -65 -124c-17 -11 -61 -34 -155 -34c-26 0 -95 2 -134 26c-28 17 -61 55 -68 116h102c1 -16 8 -36 34 -47c8 -4 25 -9 66 -9c26 0 65 2 90 21c19 14 26 32 26 54c0 25 -10 46 -34 59s-52 13 -76 13h-46v80z" />
    <glyph glyph-name="afii10074" unicode="&#x438;" 
d="M549 0h-100v364l-253 -364h-105v503h100v-364l253 364h105v-503z" />
    <glyph glyph-name="afii10075" unicode="&#x439;" 
d="M473 728v-12c0 -28 -12 -61 -33 -82c-33 -32 -84 -36 -120 -36s-87 4 -120 36c-21 21 -33 54 -33 82v12h90v-10c0 -6 0 -19 12 -30c13 -12 34 -14 51 -14s38 2 51 14c12 11 12 24 12 30v10h90zM549 0h-100v364l-253 -364h-105v503h100v-364l253 364h105v-503z" />
    <glyph glyph-name="afii10076" unicode="&#x43a;" horiz-adv-x="560" 
d="M540 0h-128l-217 226v-226h-100v503h100v-203l198 203h128l-238 -237z" />
    <glyph glyph-name="afii10077" unicode="&#x43b;" horiz-adv-x="560" 
d="M109 503h366v-503h-100v415h-170v-162c0 -117 -15 -162 -30 -188c-21 -38 -59 -65 -113 -65h-44v88h15c25 0 44 13 54 27c16 22 22 61 22 175v213z" />
    <glyph glyph-name="afii10078" unicode="&#x43c;" 
d="M551 0h-100v365l-99 -212h-66l-100 212v-365h-96v503h115l117 -234l114 234h115v-503z" />
    <glyph glyph-name="afii10079" unicode="&#x43d;" 
d="M545 0h-100v219h-249v-219h-100v503h100v-196h249v196h100v-503z" />
    <glyph glyph-name="afii10080" unicode="&#x43e;" 
d="M320 513c88 0 148 -36 186 -81c33 -40 59 -97 59 -181c0 -83 -25 -140 -59 -180c-38 -45 -98 -81 -186 -81s-148 36 -186 81c-34 40 -59 97 -59 180c0 84 26 141 59 181c38 45 98 81 186 81zM320 423c-59 0 -92 -32 -109 -56c-27 -38 -32 -82 -32 -116
c0 -33 5 -77 32 -115c17 -24 50 -56 109 -56s92 32 109 56c27 38 32 82 32 115c0 34 -5 78 -32 116c-17 24 -50 56 -109 56z" />
    <glyph glyph-name="afii10081" unicode="&#x43f;" 
d="M108 503h423v-503h-100v415h-223v-415h-100v503z" />
    <glyph glyph-name="afii10082" unicode="&#x440;" 
d="M192 503v-56c20 27 44 42 70 52s52 14 84 14c51 0 107 -10 155 -58c54 -55 66 -131 66 -203c0 -80 -13 -143 -57 -194c-34 -40 -82 -68 -164 -68c-26 0 -56 3 -85 16c-32 14 -52 34 -64 50v-223h-100v670h95zM463 252c0 78 -26 116 -33 125c-18 24 -49 48 -100 48
c-54 0 -85 -27 -104 -55c-25 -38 -29 -89 -29 -118c0 -28 3 -78 28 -117c18 -29 50 -57 105 -57c61 0 92 35 107 60c18 30 26 72 26 114z" />
    <glyph glyph-name="afii10083" unicode="&#x441;" horiz-adv-x="560" 
d="M386 153h104c-2 -59 -31 -98 -63 -123c-30 -23 -75 -40 -135 -40c-69 0 -122 24 -162 80c-37 51 -52 120 -52 184c0 77 25 144 66 191c44 50 97 68 157 68c59 0 97 -17 121 -33c27 -18 59 -52 68 -112h-104c-2 10 -7 28 -26 42c-14 10 -35 17 -56 17
c-45 0 -76 -21 -93 -45c-25 -35 -29 -92 -29 -127c0 -42 6 -98 29 -133c25 -39 62 -46 88 -46c23 0 45 9 63 25c18 17 24 35 24 52z" />
    <glyph glyph-name="afii10084" unicode="&#x442;" horiz-adv-x="560" 
d="M506 415h-177v-415h-100v415h-175v88h452v-88z" />
    <glyph glyph-name="afii10085" unicode="&#x443;" horiz-adv-x="560" 
d="M552 503l-312 -574c-13 -23 -33 -48 -58 -65c-30 -20 -58 -25 -86 -25h-41v88h38c13 0 28 2 42 14c7 6 16 17 21 27l85 156l-226 379h119l159 -281l149 281h110z" />
    <glyph glyph-name="afii10086" unicode="&#x444;" horiz-adv-x="720" 
d="M410 668v-165h16c55 0 125 -14 171 -71c48 -59 53 -138 53 -180c0 -43 -5 -122 -53 -181c-46 -57 -116 -71 -171 -71h-16v-167h-100v167h-16c-55 0 -125 14 -171 71c-48 59 -53 138 -53 181c0 42 5 121 53 180c46 57 116 71 171 71h16v165h100zM410 423v-343h14
c28 0 67 8 94 44c27 37 32 89 32 128c0 38 -5 90 -32 127c-27 36 -66 44 -94 44h-14zM310 423h-14c-28 0 -67 -8 -94 -44c-27 -37 -32 -89 -32 -127c0 -39 5 -91 32 -128c27 -36 66 -44 94 -44h14v343z" />
    <glyph glyph-name="afii10087" unicode="&#x445;" horiz-adv-x="560" 
d="M166 503l116 -170l116 170h118l-175 -245l187 -258h-126l-126 183l-124 -183h-120l186 259l-177 244h125z" />
    <glyph glyph-name="afii10088" unicode="&#x446;" 
d="M417 503h100v-415h73v-228h-96v140h-399v503h100v-415h222v415z" />
    <glyph glyph-name="afii10089" unicode="&#x447;" horiz-adv-x="560" 
d="M46 503h100v-144c0 -22 2 -45 21 -64c25 -24 69 -25 95 -25c20 0 36 1 60 5c14 3 33 7 43 10v218h100v-503h-100v202c-42 -15 -84 -18 -112 -18c-43 0 -123 7 -169 56c-37 39 -38 84 -38 123v140z" />
    <glyph glyph-name="afii10090" unicode="&#x448;" horiz-adv-x="720" 
d="M86 503h96v-415h130v415h96v-415h130v415h96v-503h-548v503z" />
    <glyph glyph-name="afii10091" unicode="&#x449;" horiz-adv-x="720" 
d="M86 503h96v-415h130v415h96v-415h130v415h96v-415h73v-228h-96v140h-525v503z" />
    <glyph glyph-name="afii10092" unicode="&#x44a;" 
d="M296 503v-184h96c49 0 100 -3 142 -35c39 -29 56 -71 56 -127c0 -58 -22 -93 -47 -115c-46 -40 -119 -42 -154 -42h-193v415h-166v88h266zM296 88h94c18 0 50 -1 72 16c21 16 24 40 24 55c0 36 -19 51 -25 56c-15 11 -41 16 -79 16h-86v-143z" />
    <glyph glyph-name="afii10093" unicode="&#x44b;" horiz-adv-x="720" 
d="M195 503v-184h56c49 0 100 -3 142 -35c39 -29 56 -71 56 -126c0 -59 -22 -95 -47 -116c-46 -40 -119 -42 -154 -42h-153v503h100zM195 88h54c18 0 50 -1 72 16c13 10 24 27 24 54c0 37 -19 53 -25 57c-15 11 -41 16 -79 16h-46v-143zM527 503h100v-503h-100v503z" />
    <glyph glyph-name="afii10094" unicode="&#x44c;" horiz-adv-x="560" 
d="M205 503v-184h102c49 0 100 -3 142 -35c39 -29 56 -71 56 -126c0 -59 -22 -95 -47 -116c-46 -40 -119 -42 -154 -42h-199v503h100zM205 88h100c18 0 50 -1 72 16c13 10 24 27 24 54c0 37 -19 53 -25 57c-15 11 -41 16 -79 16h-92v-143z" />
    <glyph glyph-name="afii10095" unicode="&#x44d;" horiz-adv-x="560" 
d="M189 300h192c-1 30 -10 66 -30 89c-28 32 -69 38 -98 38c-20 0 -47 -3 -66 -19c-13 -11 -18 -24 -19 -35h-104c6 35 22 75 70 107c36 24 79 33 124 33c61 0 115 -17 161 -68c43 -48 67 -113 66 -198c-1 -74 -20 -134 -51 -177c-47 -65 -109 -80 -185 -80
c-44 0 -95 5 -141 44c-44 37 -53 80 -54 111h104c2 -27 17 -43 26 -50c21 -17 47 -19 64 -19c41 -1 84 7 113 53c18 28 21 64 20 91h-192v80z" />
    <glyph glyph-name="afii10096" unicode="&#x44e;" horiz-adv-x="720" 
d="M184 307h68c4 39 21 90 46 127c32 46 85 79 155 79c65 0 122 -32 157 -79c34 -46 50 -115 50 -183c0 -76 -19 -140 -50 -182c-35 -47 -91 -79 -157 -79c-81 0 -130 43 -155 79c-44 62 -46 137 -46 150h-68v-219h-100v503h100v-196zM453 423c-30 0 -57 -13 -78 -45
c-26 -39 -31 -88 -31 -127c0 -40 5 -88 31 -126c21 -32 48 -45 78 -45s57 13 78 45c25 38 31 88 31 126c0 73 -20 111 -31 127c-24 37 -55 45 -78 45z" />
    <glyph glyph-name="afii10097" unicode="&#x44f;" horiz-adv-x="560" 
d="M466 503v-503h-100v195h-93l-114 -195h-119l135 216c-4 1 -45 11 -71 35c-11 10 -38 40 -38 101c0 69 36 108 67 126c39 23 95 25 134 25h199zM366 415h-101c-41 0 -58 -7 -65 -11c-10 -5 -30 -21 -30 -62c0 -19 7 -35 24 -47c19 -13 42 -15 62 -15h110v135z" />
    <glyph glyph-name="Acute" 
d="M460 896l-117 -165h-73l76 165h114z" />
    <glyph glyph-name="Delta" unicode="&#x394;" horiz-adv-x="560" 
d="M213 668h133l180 -668h-493zM276 549l-120 -459h242z" />
    <glyph glyph-name="Delta" unicode="&#x2206;" horiz-adv-x="560" 
d="M213 668h133l180 -668h-493zM276 549l-120 -459h242z" />
    <glyph glyph-name="Dieresis" 
d="M477 736h-92v113h92v-113zM256 736h-92v113h92v-113z" />
    <glyph glyph-name="acute" unicode="&#xb4;" 
d="M460 766l-117 -165h-73l76 165h114z" />
    <glyph glyph-name="approxequal" unicode="&#x2248;" 
d="M570 230v-96c-46 -42 -86 -54 -131 -54c-22 0 -42 2 -63 9c-27 8 -49 21 -73 34c-35 19 -62 32 -103 32c-31 0 -81 -7 -130 -59v96c43 41 88 55 134 54c13 0 37 -2 55 -7c12 -3 31 -11 78 -36c33 -18 58 -32 105 -32c68 0 113 43 128 59zM570 426v-96
c-51 -47 -95 -54 -134 -54c-20 0 -39 2 -60 9c-27 8 -49 21 -73 34c-33 18 -61 32 -105 32c-26 0 -77 -6 -128 -59v96c45 43 90 54 131 54c14 0 39 -2 58 -7c12 -3 31 -11 78 -36c31 -16 58 -33 108 -32c49 1 93 24 125 59z" />
    <glyph glyph-name="cyrBreve" 
d="M465 851v-10c0 -33 -13 -60 -31 -78c-31 -30 -79 -34 -114 -34s-83 4 -114 34c-18 18 -31 45 -31 78v10h85v-8c0 -7 1 -18 12 -28c13 -13 31 -14 48 -14s35 1 48 14c11 10 12 21 12 28v8h85z" />
    <glyph glyph-name="cyrbreve" 
d="M473 728v-12c0 -28 -12 -61 -33 -82c-33 -32 -84 -36 -120 -36s-87 4 -120 36c-21 21 -33 54 -33 82v12h87v-10c0 -6 0 -21 12 -32c13 -12 37 -14 54 -14s41 2 54 14c12 11 12 26 12 32v10h87z" />
    <glyph glyph-name="dieresis" unicode="&#xa8;" 
d="M477 606h-92v113h92v-113zM256 606h-92v113h92v-113z" />
    <glyph glyph-name="divide" unicode="&#xf7;" 
d="M386 462c0 -24 -10 -38 -19 -47c-11 -11 -26 -19 -47 -19s-36 8 -47 19s-19 26 -19 47c0 19 6 35 20 48c8 7 22 18 45 18c16 0 35 -7 48 -19c10 -10 19 -27 19 -47zM555 225h-470v90h470v-90zM386 78c0 -17 -5 -33 -19 -48c-12 -12 -27 -19 -47 -19c-22 0 -37 9 -47 19
c-12 13 -19 30 -19 48s5 33 19 47c15 15 31 19 47 19c19 0 36 -7 47 -18c10 -10 19 -27 19 -48z" />
    <glyph glyph-name="dotaccent" unicode="&#x2d9;" 
d="M367 604h-94v116h94v-116z" />
    <glyph glyph-name="dotlessi" unicode="&#x131;" horiz-adv-x="400" 
d="M302 0h-100v415h-166v88h266v-503z" />
    <glyph glyph-name="florin" unicode="&#x192;" horiz-adv-x="589" 
d="M531 642h-58c-22 0 -58 -1 -86 -23s-37 -56 -42 -79l-23 -106h152v-88h-170l-109 -513h-100l109 513h-153v88h171l25 117c16 73 49 113 75 133c40 31 98 46 159 46h50v-88z" />
    <glyph glyph-name="greaterequal" unicode="&#x2265;" 
d="M551 90v-90h-462v90h462zM551 436v-75l-462 -211v97l339 151l-339 151v98z" />
    <glyph glyph-name="infinity" unicode="&#x221e;" horiz-adv-x="720" 
d="M360 225l-20 -22c-19 -20 -30 -31 -54 -46c-19 -12 -49 -29 -93 -31c-53 -2 -101 21 -130 56c-33 40 -37 88 -37 119c0 39 7 83 37 119c29 35 77 58 130 56c44 -2 74 -19 93 -31c24 -15 35 -26 54 -46l20 -22l20 22c19 20 30 31 54 46c19 12 49 29 93 31
c53 2 101 -21 130 -56c30 -36 37 -80 37 -119c0 -31 -4 -79 -37 -119c-29 -35 -77 -58 -130 -56c-44 2 -74 19 -93 31c-24 15 -35 26 -54 46zM314 301l-25 32c-38 49 -72 53 -87 54c-48 2 -78 -35 -78 -86c0 -60 40 -87 78 -86c37 1 68 29 87 54zM406 301l25 -32
c19 -25 50 -53 87 -54c38 -1 78 26 78 86c0 51 -30 88 -78 86c-15 -1 -49 -5 -87 -54z" />
    <glyph glyph-name="lessequal" unicode="&#x2264;" 
d="M89 90h462v-90h-462v90zM89 436l462 211v-98l-339 -151l339 -151v-97l-462 211v75z" />
    <glyph glyph-name="nbspace" unicode="&#xa0;" horiz-adv-x="233" 
 />
    <glyph glyph-name="notequal" unicode="&#x2260;" 
d="M555 324h-173l-55 -109h228v-90h-273l-77 -152h-48v41l56 111h-128v90h173l55 109h-228v90h273l77 152h48v-41l-56 -111h128v-90z" />
    <glyph glyph-name="radical" unicode="&#x221a;" 
d="M595 732l-190 -756h-127l-121 437h-95v90h171l110 -390l150 619h102z" />
    <glyph glyph-name="sterling" unicode="&#xa3;" 
d="M551 0h-472v90h70l51 210h-102v89h124l41 174c18 75 39 107 52 121c36 40 83 46 117 46c32 0 75 -7 119 -59v-87h-39l-18 20c-23 26 -38 35 -59 35c-23 0 -38 -9 -50 -30c-7 -13 -14 -32 -26 -81l-33 -139h121v-89h-143l-51 -210h298v-90z" />
    </font>
</defs>
</svg>
