<svg width="415" height="341" viewBox="0 0 415 341" fill="none" xmlns="http://www.w3.org/2000/svg">
<g filter="url(#filter0_d)">
<path d="M133.17 247.68L133.17 172M133.17 247.68L275.5 172M133.17 247.68L275.5 245.5M133.17 172H275.5M133.17 172L275.265 90.5M133.17 172L133.17 3H275.265M133.17 172L275.265 3M275.5 172L275.265 3M275.5 172V245.5M275.5 172L409 90.5M275.265 3V90.5M275.5 245.5L408 244M275.5 245.5L409 90.5M409 90.5H275.265" stroke="#D26464" stroke-width="3" stroke-linejoin="round"/>
</g>
<path d="M132.865 248L132.865 339.5H29.5V248H132.865Z" fill="#E56868" stroke="#D26464" stroke-width="3" stroke-linejoin="round"/>
<path d="M274 245.5L133 247.5L274 173.5V214V245.5Z" fill="#CD5F5F"/>
<path d="M0 172.5H134V247.5L0 172.5Z" fill="#CD5F5F"/>
<path d="M133.5 3V172H82.5V3H133.5Z" fill="#EA6969" stroke="#D26464" stroke-width="3" stroke-linejoin="round"/>
<path d="M408.5 244.273V92.5L275.5 245.5L408.5 244.273Z" fill="#FF7575" stroke="#D26464" stroke-width="3" stroke-linejoin="round"/>
<path d="M408.5 90H275V2L408.5 90Z" fill="#FF9797" stroke="#D26464" stroke-width="3" stroke-linejoin="round"/>
<path d="M274 7L136 170.5H274.5L274 7Z" fill="#FF7575"/>
<defs>
<filter id="filter0_d" x="127.67" y="1.5" width="286.83" height="255.68" filterUnits="userSpaceOnUse" color-interpolation-filters="sRGB">
<feFlood flood-opacity="0" result="BackgroundImageFix"/>
<feColorMatrix in="SourceAlpha" type="matrix" values="0 0 0 0 0 0 0 0 0 0 0 0 0 0 0 0 0 0 127 0"/>
<feOffset dy="4"/>
<feGaussianBlur stdDeviation="2"/>
<feColorMatrix type="matrix" values="0 0 0 0 0 0 0 0 0 0 0 0 0 0 0 0 0 0 0.25 0"/>
<feBlend mode="normal" in2="BackgroundImageFix" result="effect1_dropShadow"/>
<feBlend mode="normal" in="SourceGraphic" in2="effect1_dropShadow" result="shape"/>
</filter>
</defs>
</svg>
