<svg width="423" height="411" viewBox="0 0 423 411" fill="none" xmlns="http://www.w3.org/2000/svg">
<g filter="url(#filter0_d)">
<path d="M141.17 276.68L90.5 155.5L138 119.5M141.17 276.68L138 119.5M141.17 276.68L283.5 201M141.17 276.68L283.5 274.5M138 119.5L283.5 201M138 119.5L282.93 3M138 119.5V3H282.93M283.5 201L282.93 3M283.5 201V274.5M283.5 201L417 119.5M282.93 3L417 119.5M283.5 274.5L417 119.5" stroke="#D26464" stroke-width="3" stroke-linejoin="round"/>
</g>
<path d="M140.865 277L140.865 409L2 277H140.865Z" fill="#E56868" stroke="#D26464" stroke-width="3" stroke-linejoin="round"/>
<path d="M282 274.5L141 276.5L282 202.5V274.5Z" fill="#CD5F5F"/>
<path d="M92 156L136.5 122L142 276.5L92 156Z" fill="#CD5F5F"/>
<path d="M138 3.5V117.5L4.5 3.5H138Z" fill="#EA6969" stroke="#D26464" stroke-width="3" stroke-linejoin="round"/>
<path d="M416.5 212V121.5L283.5 274.5L416.5 212Z" fill="#FF7575" stroke="#D26464" stroke-width="3" stroke-linejoin="round"/>
<path d="M415.5 2V120.5L283.5 2H415.5Z" fill="#FF9797" stroke="#D26464" stroke-width="3" stroke-linejoin="round"/>
<path d="M281.5 5.5L140.5 119.5L282 198.5L281.5 5.5Z" fill="#FF7575"/>
<defs>
<filter id="filter0_d" x="85" y="1.5" width="337.5" height="284.68" filterUnits="userSpaceOnUse" color-interpolation-filters="sRGB">
<feFlood flood-opacity="0" result="BackgroundImageFix"/>
<feColorMatrix in="SourceAlpha" type="matrix" values="0 0 0 0 0 0 0 0 0 0 0 0 0 0 0 0 0 0 127 0"/>
<feOffset dy="4"/>
<feGaussianBlur stdDeviation="2"/>
<feColorMatrix type="matrix" values="0 0 0 0 0 0 0 0 0 0 0 0 0 0 0 0 0 0 0.25 0"/>
<feBlend mode="normal" in2="BackgroundImageFix" result="effect1_dropShadow"/>
<feBlend mode="normal" in="SourceGraphic" in2="effect1_dropShadow" result="shape"/>
</filter>
</defs>
</svg>
