<svg width="324" height="292" viewBox="0 0 324 292" fill="none" xmlns="http://www.w3.org/2000/svg">
<path d="M111 278.5L37.5 118L147.655 158.388L157.5 268.5L111 278.5Z" fill="#E56868"/>
<path d="M317 134L213.154 281L209 276.342L307.654 136.07L317 134Z" fill="#CD5F5F"/>
<path d="M157.414 268.772L147 158.747L235 152L184.491 275L157.414 268.772Z" fill="#F06E6E"/>
<path d="M100.5 280.5L7.5 107.5L37.6515 117.877L111.5 278.5L100.5 280.5Z" fill="#CD5F5F"/>
<path d="M219.435 4L185 30.8125L307.609 136L317 134.453L219.435 4Z" fill="#CC5F5F"/>
<path d="M184.5 275L235 152L317 134.5L212 281L184.5 275Z" fill="#FF7575"/>
<g filter="url(#filter0_d)">
<path d="M6 107.259L113.461 2L163.817 11.3333L219.364 2L318 134.222L212.616 282L157.587 270.074L99.9634 282L6 107.259Z" stroke="#D26464" stroke-width="3"/>
</g>
<path d="M37.5 118L7.5 107.5L114 3.5L37.5 118Z" fill="#F06E6E"/>
<path d="M114 3.5L37.5 118L147.475 159L164 12.5L114 3.5Z" fill="#F67070"/>
<path d="M176.5 10.5L164 12.5L147 159L235 152L176.5 10.5Z" fill="#FF7575"/>
<path d="M235 152L317 134.923L219 3.5L176.5 10.5L235 152Z" fill="#FF9797"/>
<defs>
<filter id="filter0_d" x="0.144897" y="0.369141" width="323.712" height="291.327" filterUnits="userSpaceOnUse" color-interpolation-filters="sRGB">
<feFlood flood-opacity="0" result="BackgroundImageFix"/>
<feColorMatrix in="SourceAlpha" type="matrix" values="0 0 0 0 0 0 0 0 0 0 0 0 0 0 0 0 0 0 127 0"/>
<feOffset dy="4"/>
<feGaussianBlur stdDeviation="2"/>
<feColorMatrix type="matrix" values="0 0 0 0 0 0 0 0 0 0 0 0 0 0 0 0 0 0 0.25 0"/>
<feBlend mode="normal" in2="BackgroundImageFix" result="effect1_dropShadow"/>
<feBlend mode="normal" in="SourceGraphic" in2="effect1_dropShadow" result="shape"/>
</filter>
</defs>
</svg>
