<svg width="406" height="385" viewBox="0 0 406 385" fill="none" xmlns="http://www.w3.org/2000/svg">
<g filter="url(#filter0_d)">
<path d="M130.67 281.18L76 155.21L86.8068 112.368M130.67 281.18L86.8068 112.368M130.67 281.18L272.43 219.5M130.67 281.18L286.415 277.343M86.8068 112.368L272.43 219.5M86.8068 112.368L272.43 7.5M86.8068 112.368L137.027 13.255L272.43 7.5M272.43 219.5V7.5M272.43 219.5L286.415 277.343M272.43 219.5L367.149 149.456M272.43 7.5L367.149 149.456M286.415 277.343L367.149 149.456" stroke="#D26464" stroke-width="3"/>
</g>
<path d="M130.365 281.5L157 381L6 281.5H130.365Z" fill="#E56868" stroke="#D26464" stroke-width="3"/>
<path d="M284.463 275.939L130.5 281L271.5 221L284.463 275.939Z" fill="#CD5F5F"/>
<path d="M76.5 155L87.5 113L131.5 281L76.5 155Z" fill="#CD5F5F"/>
<path d="M136.684 13.1842L88 108L38 2L136.684 13.1842Z" fill="#EA6969" stroke="#D26464" stroke-width="3"/>
<path d="M378 207L366.5 151L286 277.5L378 207Z" fill="#FF7575" stroke="#D26464" stroke-width="3"/>
<path d="M367 150.5L403.5 49L273.5 8.5L367 150.5Z" fill="#FF9797" stroke="#D26464" stroke-width="3"/>
<path d="M271 10L89.5 112.5L271 217V10Z" fill="#FF7575"/>
<defs>
<filter id="filter0_d" x="70.4207" y="5.96533" width="302.517" height="284.739" filterUnits="userSpaceOnUse" color-interpolation-filters="sRGB">
<feFlood flood-opacity="0" result="BackgroundImageFix"/>
<feColorMatrix in="SourceAlpha" type="matrix" values="0 0 0 0 0 0 0 0 0 0 0 0 0 0 0 0 0 0 127 0"/>
<feOffset dy="4"/>
<feGaussianBlur stdDeviation="2"/>
<feColorMatrix type="matrix" values="0 0 0 0 0 0 0 0 0 0 0 0 0 0 0 0 0 0 0.25 0"/>
<feBlend mode="normal" in2="BackgroundImageFix" result="effect1_dropShadow"/>
<feBlend mode="normal" in="SourceGraphic" in2="effect1_dropShadow" result="shape"/>
</filter>
</defs>
</svg>
