<svg width="324" height="295" viewBox="0 0 324 295" fill="none" xmlns="http://www.w3.org/2000/svg">
<g filter="url(#filter0_d)">
<path fill-rule="evenodd" clip-rule="evenodd" d="M157.768 265.056C133.332 279.977 104.93 289.846 84.3821 257.661C63.3055 224.647 47.6778 202.213 36.1617 185.68C12.8341 152.192 6.37669 142.922 5.67234 119C5.09943 99.5423 5.36496 99.2906 42.0539 64.513C55.5084 51.7593 73.8613 34.3625 98.8674 9.67266C112.002 -3.29603 136.682 1.82849 158.113 12.8075C178.436 2.6307 206.954 -2.27282 220.844 9.27149C267.328 47.9051 289.613 77.2415 311.04 119.738C323.968 145.378 296.579 178.647 263.582 218.729C255.036 229.109 246.115 239.947 237.42 251.226C204.152 294.384 178.654 282.606 157.768 265.056Z" fill="#FF7575"/>
<path d="M84.3821 257.661L83.1178 258.468L84.3821 257.661ZM157.768 265.056L158.733 263.908L157.907 263.214L156.987 263.776L157.768 265.056ZM36.1617 185.68L34.9308 186.538L36.1617 185.68ZM5.67234 119L7.17169 118.956L5.67234 119ZM42.0539 64.513L41.022 63.4243L42.0539 64.513ZM98.8674 9.67266L99.9213 10.74V10.74L98.8674 9.67266ZM158.113 12.8075L157.429 14.1425L158.105 14.4889L158.785 14.1487L158.113 12.8075ZM220.844 9.27149L221.803 8.1179L220.844 9.27149ZM311.04 119.738L309.701 120.414L311.04 119.738ZM263.582 218.729L264.74 219.682L263.582 218.729ZM237.42 251.226L238.608 252.142L237.42 251.226ZM83.1178 258.468C93.6402 274.949 106.345 280.846 119.653 280.523C132.792 280.203 146.287 273.824 158.55 266.336L156.987 263.776C144.813 271.209 131.889 277.224 119.581 277.524C107.443 277.819 95.6722 272.557 85.6465 256.853L83.1178 258.468ZM34.9308 186.538C46.4438 203.065 62.0577 225.48 83.1178 258.468L85.6465 256.853C64.5533 223.814 48.9118 201.36 37.3925 184.823L34.9308 186.538ZM4.17299 119.044C4.53015 131.174 6.35607 139.689 11.0844 149.409C15.7663 159.033 23.2965 169.836 34.9308 186.538L37.3925 184.823C25.6993 168.036 18.3369 157.46 13.7822 148.096C9.27385 138.829 7.51887 130.747 7.17169 118.956L4.17299 119.044ZM41.022 63.4243C31.8568 72.112 24.941 78.6673 19.7455 83.9059C14.5573 89.1371 11.0176 93.1208 8.64347 96.667C6.24207 100.254 5.02809 103.4 4.47396 106.936C3.93062 110.404 4.03084 114.216 4.17299 119.044L7.17169 118.956C7.02738 114.055 6.94595 110.539 7.43779 107.4C7.91885 104.33 8.95689 101.591 11.1364 98.336C13.3431 95.0398 16.7131 91.2237 21.8756 86.0184C27.0307 80.8205 33.9065 74.3027 43.0858 65.6016L41.022 63.4243ZM97.8135 8.60527C72.8186 33.2841 54.4747 50.6724 41.022 63.4243L43.0858 65.6016C56.5421 52.8463 74.904 35.441 99.9213 10.74L97.8135 8.60527ZM158.797 11.4725C147.977 5.92969 136.264 1.82364 125.526 0.766897C114.797 -0.289014 104.82 1.6873 97.8135 8.60527L99.9213 10.74C106.05 4.68932 114.98 2.74355 125.232 3.75247C135.476 4.76056 146.818 8.70627 157.429 14.1425L158.797 11.4725ZM158.785 14.1487C168.8 9.13357 180.83 5.42347 192.029 4.3877C203.28 3.34708 213.393 5.02889 219.885 10.4251L221.803 8.1179C214.405 1.96979 203.313 0.331207 191.753 1.40045C180.139 2.47457 167.749 6.3046 157.441 11.4662L158.785 14.1487ZM219.885 10.4251C266.219 48.9342 288.371 78.1103 309.701 120.414L312.38 119.063C290.855 76.3728 268.437 46.8761 221.803 8.1179L219.885 10.4251ZM309.701 120.414C315.81 132.531 312.522 146.655 303.227 163.079C293.95 179.473 278.952 197.699 262.424 217.776L264.74 219.682C281.209 199.677 296.404 181.228 305.838 164.557C315.255 147.916 319.197 132.585 312.38 119.063L309.701 120.414ZM262.424 217.776C253.881 228.153 244.944 239.009 236.232 250.311L238.608 252.142C247.286 240.884 256.192 230.065 264.74 219.682L262.424 217.776ZM236.232 250.311C219.729 271.72 205.415 279.163 192.921 279.407C180.356 279.652 169.126 272.641 158.733 263.908L156.803 266.204C167.296 275.022 179.258 282.674 192.98 282.407C206.774 282.137 221.843 273.891 238.608 252.142L236.232 250.311Z" fill="#D26464"/>
<path d="M223.798 57.7814C238.422 64.1202 244.56 81.0522 243.1 89.8587C242.086 93.3712 237.315 102.716 246.013 105.021C256.886 107.903 261.868 100.138 265.259 96.4993C268.65 92.8606 268.12 80.1168 258.003 65.7373C248.675 52.4776 238.216 38.3359 227.426 37.0969C213.725 34.8596 205.519 49.8579 223.798 57.7814Z" fill="#FF9797"/>
<path d="M130.511 193.56C102.47 170.485 91.8506 134.657 98.8976 101.804C101.247 80.1683 121.921 59.7243 107.044 47.7046C87.3612 31.8021 75.0576 56.1907 50.1811 76.8756C30.8683 92.9342 15.7409 114.329 35.6698 152.72C53.2907 186.665 84.544 245.042 107.044 253.627C128.438 274.178 165.563 222.404 130.511 193.56Z" fill="#E66868"/>
<path d="M171.618 255.009C168.274 250.958 159.098 244.854 149.139 252.847" stroke="#C2494C" stroke-width="3" stroke-linecap="round" stroke-linejoin="round"/>
</g>
<defs>
<filter id="filter0_d" x="0.0606689" y="0.500488" width="323.75" height="293.913" filterUnits="userSpaceOnUse" color-interpolation-filters="sRGB">
<feFlood flood-opacity="0" result="BackgroundImageFix"/>
<feColorMatrix in="SourceAlpha" type="matrix" values="0 0 0 0 0 0 0 0 0 0 0 0 0 0 0 0 0 0 127 0"/>
<feOffset dx="2" dy="6"/>
<feGaussianBlur stdDeviation="3"/>
<feColorMatrix type="matrix" values="0 0 0 0 0 0 0 0 0 0 0 0 0 0 0 0 0 0 0.25 0"/>
<feBlend mode="normal" in2="BackgroundImageFix" result="effect1_dropShadow"/>
<feBlend mode="normal" in="SourceGraphic" in2="effect1_dropShadow" result="shape"/>
</filter>
</defs>
</svg>
