<svg width="329" height="305" viewBox="0 0 329 305" fill="none" xmlns="http://www.w3.org/2000/svg">
<g filter="url(#filter0_d)">
<path fill-rule="evenodd" clip-rule="evenodd" d="M167.033 262.324C183.365 283.414 203.395 303.955 244.984 280.561C292.828 253.649 317.505 179.128 318.556 141.279C319.339 113.109 312.301 17.377 228.419 24.2629C199.491 26.6376 180.116 35.2225 167.221 46.3398C154.327 35.4289 135.08 27.0319 106.521 24.6875C22.6382 17.8016 12.6036 112.326 13.3861 140.496C14.4375 178.345 39.095 252.083 86.9399 278.996C128.463 302.353 149.822 282.789 167.033 262.324Z" fill="#FF7575"/>
<path d="M244.984 280.561L245.719 281.869L244.984 280.561ZM167.033 262.324L168.219 261.405L167.081 259.936L165.885 261.358L167.033 262.324ZM318.556 141.279L320.056 141.32L318.556 141.279ZM228.419 24.2629L228.296 22.768L228.419 24.2629ZM167.221 46.3398L166.252 47.4849L167.23 48.3125L168.201 47.4759L167.221 46.3398ZM106.521 24.6875L106.644 23.1925L106.521 24.6875ZM13.3861 140.496L14.8856 140.454L13.3861 140.496ZM86.9399 278.996L86.2045 280.303L86.9399 278.996ZM244.248 279.254C223.722 290.8 208.799 291.363 197.089 286.729C185.26 282.047 176.386 271.952 168.219 261.405L165.847 263.242C174.012 273.786 183.319 284.506 195.985 289.519C208.771 294.579 224.656 293.717 245.719 281.869L244.248 279.254ZM317.057 141.237C316.538 159.925 310.167 187.819 297.954 214.395C285.736 240.984 267.778 266.018 244.248 279.254L245.719 281.869C270.034 268.192 288.337 242.509 300.68 215.648C313.03 188.773 319.523 160.482 320.056 141.32L317.057 141.237ZM228.541 25.7579C249.207 24.0614 265.027 28.6867 277.158 36.9214C289.311 45.1709 297.877 57.1213 303.872 70.2481C315.882 96.5408 317.445 127.252 317.057 141.237L320.056 141.32C320.45 127.136 318.886 95.896 306.601 69.0017C300.45 55.5351 291.577 43.083 278.843 34.4392C266.087 25.7805 249.571 21.0215 228.296 22.768L228.541 25.7579ZM168.201 47.4759C180.805 36.609 199.857 28.1126 228.541 25.7579L228.296 22.768C199.124 25.1626 179.427 33.8361 166.242 45.2038L168.201 47.4759ZM168.19 45.1948C155.008 34.0399 135.442 25.5566 106.644 23.1925L106.398 26.1825C134.717 28.5071 153.646 36.8179 166.252 47.4849L168.19 45.1948ZM106.644 23.1925C85.3718 21.4463 68.6781 26.1282 55.6487 34.6614C42.6395 43.1814 33.388 55.4712 26.8574 68.7853C13.8154 95.3742 11.4917 126.316 11.8867 140.537L14.8856 140.454C14.4981 126.506 16.8004 96.1008 29.5508 70.1064C35.9163 57.1289 44.8526 45.3181 57.2924 37.1711C69.712 29.0372 85.7286 24.4857 106.398 26.1825L106.644 23.1925ZM11.8867 140.537C12.419 159.7 18.908 187.797 31.2542 214.477C43.5947 241.146 61.8935 266.629 86.2045 280.303L87.6753 277.689C64.1415 264.451 46.1891 239.609 33.9768 213.217C21.7701 186.838 15.4046 159.141 14.8856 140.454L11.8867 140.537ZM86.2045 280.303C107.235 292.133 123.412 293.219 136.608 288.506C149.7 283.829 159.564 273.535 168.181 263.289L165.885 261.358C157.29 271.578 147.869 281.298 135.599 285.68C123.431 290.026 108.167 289.215 87.6753 277.689L86.2045 280.303Z" fill="#D26464"/>
<path d="M237.02 74.332C251.634 80.5219 253.719 97.7513 252.259 106.351C251.246 109.781 246.479 118.906 255.171 121.157C266.037 123.971 274.265 117.272 277.654 113.719C281.043 110.166 287.223 91.5105 278.584 76.5188C271.592 64.3849 251.694 54.1104 240.911 52.9005C227.219 50.7157 218.752 66.5946 237.02 74.332Z" fill="#FF9797"/>
<path d="M134.632 210.142C106.609 187.609 95.5075 156.15 102.55 124.068C104.897 102.941 104.897 77.119 90.0301 65.3816C70.3602 49.8527 47.0553 60.729 37.6034 81.814C27.431 104.506 24.5106 142.457 34.9684 183.6C43.4328 216.9 82.412 265.14 104.897 273.523C133.1 285.76 169.661 238.308 134.632 210.142Z" fill="#E66868"/>
<path d="M166.645 62.9395C164.861 52.4816 164.448 25.8128 177.065 2.80153" stroke="#C2494C" stroke-width="3" stroke-linecap="round" stroke-linejoin="round"/>
<path d="M197.229 69.0163C186.545 78.0749 159.414 89.8736 136.355 64.5993" stroke="#C2494C" stroke-width="3" stroke-linecap="round" stroke-linejoin="round"/>
<path d="M179.788 265.55C176.446 261.595 167.276 255.634 157.324 263.439" stroke="#C2494C" stroke-width="3" stroke-linecap="round" stroke-linejoin="round"/>
</g>
<defs>
<filter id="filter0_d" x="0.56575" y="0.265625" width="327.543" height="304.181" filterUnits="userSpaceOnUse" color-interpolation-filters="sRGB">
<feFlood flood-opacity="0" result="BackgroundImageFix"/>
<feColorMatrix in="SourceAlpha" type="matrix" values="0 0 0 0 0 0 0 0 0 0 0 0 0 0 0 0 0 0 127 0"/>
<feOffset dx="2" dy="6"/>
<feGaussianBlur stdDeviation="3"/>
<feColorMatrix type="matrix" values="0 0 0 0 0 0 0 0 0 0 0 0 0 0 0 0 0 0 0.25 0"/>
<feBlend mode="normal" in2="BackgroundImageFix" result="effect1_dropShadow"/>
<feBlend mode="normal" in="SourceGraphic" in2="effect1_dropShadow" result="shape"/>
</filter>
</defs>
</svg>
