<svg width="303" height="286" viewBox="0 0 303 286" fill="none" xmlns="http://www.w3.org/2000/svg">
<g filter="url(#filter0_d)">
<path d="M6 149.71L60.6699 275.68L216.415 271.843L297.149 143.956L202.43 2L67.0268 7.75495L16.8068 106.868L6 149.71Z" fill="#FF7575" stroke="#D26464" stroke-width="3"/>
<path d="M61.5 275L17.0635 106.814L207.5 214.5L61.5 275Z" fill="#E56868"/>
<path d="M214.463 270.439L60.5 275.5L207.5 214.5L214.463 270.439Z" fill="#CD5F5F"/>
<path d="M295.5 144L207.5 214L201.5 4L295.5 144Z" fill="#FFB9B9" fill-opacity="0.5"/>
<path d="M6.5 149.5L17.5 107.5L61.5 275.5L6.5 149.5Z" fill="#CD5F5F"/>
<path d="M68 9.5L18 108L201.5 3.5L68 9.5Z" fill="#EA6969" fill-opacity="0.4"/>
</g>
<defs>
<filter id="filter0_d" x="0.420654" y="0.465332" width="302.517" height="284.739" filterUnits="userSpaceOnUse" color-interpolation-filters="sRGB">
<feFlood flood-opacity="0" result="BackgroundImageFix"/>
<feColorMatrix in="SourceAlpha" type="matrix" values="0 0 0 0 0 0 0 0 0 0 0 0 0 0 0 0 0 0 127 0"/>
<feOffset dy="4"/>
<feGaussianBlur stdDeviation="2"/>
<feColorMatrix type="matrix" values="0 0 0 0 0 0 0 0 0 0 0 0 0 0 0 0 0 0 0.25 0"/>
<feBlend mode="normal" in2="BackgroundImageFix" result="effect1_dropShadow"/>
<feBlend mode="normal" in="SourceGraphic" in2="effect1_dropShadow" result="shape"/>
</filter>
</defs>
</svg>
